<svg width="376" height="142" viewBox="0 0 376 142" fill="none" xmlns="http://www.w3.org/2000/svg">
<mask id="path-1-outside-1" maskUnits="userSpaceOnUse" x="-1" y="0" width="377" height="142" fill="black">
<rect fill="white" x="-1" width="377" height="142"/>
<path d="M74.2274 79.4015C70.305 69.6115 66.5226 59.9628 62.8804 50.4552C59.3315 40.8535 55.5959 31.1577 51.6735 21.3678C47.7511 31.1577 43.8754 40.8535 40.0464 50.4552C36.3107 59.9628 32.4817 69.6115 28.5593 79.4015H74.2274ZM98.6023 114.419C99.0693 115.737 98.649 116.396 97.3416 116.396H90.6174C90.0571 116.396 89.5434 116.302 89.0765 116.114C88.7029 115.926 88.3294 115.361 87.9558 114.419L77.5894 88.4384H24.9171C23.1426 92.8627 21.4149 97.1928 19.7339 101.429C18.0528 105.665 16.3718 109.995 14.6908 114.419C14.3172 115.361 13.897 115.926 13.43 116.114C13.0564 116.302 12.5895 116.396 12.0291 116.396H5.4451C4.13763 116.396 3.71737 115.737 4.18432 114.419L45.3696 13.3193C45.8366 12.1897 46.6771 11.6249 47.8912 11.6249H56.4364C57.6505 11.6249 58.491 12.1897 58.958 13.3193L98.6023 114.419Z"/>
<path d="M125.017 114.419C125.017 115.737 124.364 116.396 123.056 116.396H116.892C115.585 116.396 114.931 115.737 114.931 114.419V6.11802C114.931 4.80014 115.585 4.1412 116.892 4.1412H123.056C124.364 4.1412 125.017 4.80014 125.017 6.11802V114.419Z"/>
<path d="M201.25 77.1423C201.25 73.2828 200.877 69.5645 200.13 65.9874C199.383 62.3161 198.122 59.0685 196.347 56.2445C194.573 53.4204 192.285 51.1612 189.483 49.4668C186.681 47.6783 183.179 46.784 178.977 46.784C175.148 46.784 171.832 47.5841 169.031 49.1844C166.229 50.7847 163.894 52.9968 162.026 55.8209C160.252 58.5508 158.898 61.7513 157.964 65.4225C157.03 69.0938 156.563 73.0004 156.563 77.1423C156.563 88.0618 158.571 96.3456 162.587 101.994C166.696 107.548 172.159 110.325 178.977 110.325C182.526 110.325 185.654 109.571 188.362 108.065C191.164 106.465 193.499 104.206 195.367 101.288C197.328 98.3695 198.776 94.8865 199.709 90.8388C200.737 86.791 201.25 82.2255 201.25 77.1423ZM147.177 41.9831C147.177 40.6653 147.831 40.0063 149.138 40.0063H154.462C155.769 40.0063 156.423 40.6653 156.423 41.9831L155.722 52.5732C157.59 48.4313 160.719 45.0896 165.108 42.5479C169.591 40.0063 174.774 38.7355 180.658 38.7355C186.168 38.7355 190.837 39.7239 194.666 41.7007C198.589 43.6776 201.764 46.4075 204.192 49.8904C206.714 53.2792 208.535 57.327 209.656 62.0337C210.87 66.7404 211.477 71.7766 211.477 77.1423C211.477 82.9786 210.776 88.3913 209.375 93.3804C208.068 98.3695 206.107 102.7 203.492 106.371C200.97 110.042 197.795 112.96 193.966 115.125C190.137 117.196 185.701 118.232 180.658 118.232C174.961 118.232 170.058 117.149 165.949 114.984C161.84 112.725 158.711 109.619 156.563 105.665V136.023C156.563 137.341 155.909 138 154.602 138H149.278C148.718 138 148.204 137.812 147.738 137.435C147.364 137.059 147.177 136.588 147.177 136.023V41.9831Z"/>
<path d="M293.77 114.419C293.77 115.737 293.116 116.396 291.808 116.396H286.205C284.897 116.396 284.244 115.737 284.244 114.419V70.9294C284.244 66.411 283.823 62.5985 282.983 59.4921C282.236 56.2915 281.115 53.7499 279.621 51.8672C278.127 49.8904 276.306 48.4784 274.158 47.6312C272.01 46.784 269.628 46.3604 267.013 46.3604C259.355 46.3604 253.471 48.196 249.362 51.8672C245.346 55.5385 243.339 60.6217 243.339 67.117V114.419C243.339 115.737 242.685 116.396 241.377 116.396H235.774C234.466 116.396 233.813 115.737 233.813 114.419V5.97682C233.813 4.65894 234.466 4 235.774 4H241.377C242.685 4 243.339 4.65894 243.339 5.97682V46.9252C245.954 43.9129 249.176 41.7478 253.005 40.4299C256.927 39.0179 261.783 38.3119 267.574 38.3119C276.632 38.3119 283.263 40.9947 287.466 46.3604C291.668 51.726 293.77 59.8686 293.77 70.7882V114.419Z"/>
<path d="M361.914 76.5774H359.252C354.022 76.3892 349.353 76.6245 345.244 77.2835C341.228 77.8483 337.866 78.6484 335.157 79.6839C331.235 81.0959 328.293 83.2139 326.332 86.0379C324.371 88.7678 323.39 92.0625 323.39 95.922C323.39 98.2754 323.764 100.488 324.511 102.558C325.258 104.535 326.425 106.089 328.013 107.218C330.815 109.477 334.55 110.607 339.22 110.607C342.489 110.607 345.477 109.948 348.185 108.63C350.987 107.312 353.415 105.43 355.47 102.982C357.524 100.535 359.112 97.5223 360.233 93.9452C361.353 90.274 361.914 86.085 361.914 81.3783V76.5774ZM321.989 51.8672C321.522 52.1496 321.055 52.2438 320.588 52.1496C320.215 51.9614 320.028 51.6319 320.028 51.1612V45.7956C320.028 44.4777 320.682 43.4893 321.989 42.8304C325.258 41.0418 328.713 39.8181 332.356 39.1591C336.091 38.406 340.154 38.0295 344.543 38.0295C353.882 38.0295 360.7 40.2887 364.996 44.8072C369.292 49.2315 371.44 55.9621 371.44 64.999V100.44C371.44 103.264 371.486 105.806 371.58 108.065C371.673 110.23 371.813 112.348 372 114.419C372 115.737 371.346 116.396 370.039 116.396H364.996C363.688 116.396 363.034 115.737 363.034 114.419V103.547C361.073 108.348 357.758 112.066 353.088 114.702C348.512 117.338 343.516 118.655 338.099 118.655C328.667 118.655 321.756 115.878 317.366 110.325C315.872 108.442 314.751 106.277 314.004 103.829C313.257 101.288 312.884 98.7931 312.884 96.3456C312.884 90.6034 314.191 85.6614 316.806 81.5195C319.514 77.3776 323.624 74.2712 329.134 72.2002C335.858 69.7527 346.177 68.529 360.093 68.529H361.914V64.2929C361.914 58.3625 360.56 53.844 357.851 50.7376C355.236 47.6312 350.8 46.078 344.543 46.078C340.341 46.078 336.371 46.5487 332.636 47.49C328.9 48.3372 325.351 49.7963 321.989 51.8672Z"/>
</mask>
<path d="M74.2274 79.4015C70.305 69.6115 66.5226 59.9628 62.8804 50.4552C59.3315 40.8535 55.5959 31.1577 51.6735 21.3678C47.7511 31.1577 43.8754 40.8535 40.0464 50.4552C36.3107 59.9628 32.4817 69.6115 28.5593 79.4015H74.2274ZM98.6023 114.419C99.0693 115.737 98.649 116.396 97.3416 116.396H90.6174C90.0571 116.396 89.5434 116.302 89.0765 116.114C88.7029 115.926 88.3294 115.361 87.9558 114.419L77.5894 88.4384H24.9171C23.1426 92.8627 21.4149 97.1928 19.7339 101.429C18.0528 105.665 16.3718 109.995 14.6908 114.419C14.3172 115.361 13.897 115.926 13.43 116.114C13.0564 116.302 12.5895 116.396 12.0291 116.396H5.4451C4.13763 116.396 3.71737 115.737 4.18432 114.419L45.3696 13.3193C45.8366 12.1897 46.6771 11.6249 47.8912 11.6249H56.4364C57.6505 11.6249 58.491 12.1897 58.958 13.3193L98.6023 114.419Z" fill="black"/>
<path d="M125.017 114.419C125.017 115.737 124.364 116.396 123.056 116.396H116.892C115.585 116.396 114.931 115.737 114.931 114.419V6.11802C114.931 4.80014 115.585 4.1412 116.892 4.1412H123.056C124.364 4.1412 125.017 4.80014 125.017 6.11802V114.419Z" fill="black"/>
<path d="M201.25 77.1423C201.25 73.2828 200.877 69.5645 200.13 65.9874C199.383 62.3161 198.122 59.0685 196.347 56.2445C194.573 53.4204 192.285 51.1612 189.483 49.4668C186.681 47.6783 183.179 46.784 178.977 46.784C175.148 46.784 171.832 47.5841 169.031 49.1844C166.229 50.7847 163.894 52.9968 162.026 55.8209C160.252 58.5508 158.898 61.7513 157.964 65.4225C157.03 69.0938 156.563 73.0004 156.563 77.1423C156.563 88.0618 158.571 96.3456 162.587 101.994C166.696 107.548 172.159 110.325 178.977 110.325C182.526 110.325 185.654 109.571 188.362 108.065C191.164 106.465 193.499 104.206 195.367 101.288C197.328 98.3695 198.776 94.8865 199.709 90.8388C200.737 86.791 201.25 82.2255 201.25 77.1423ZM147.177 41.9831C147.177 40.6653 147.831 40.0063 149.138 40.0063H154.462C155.769 40.0063 156.423 40.6653 156.423 41.9831L155.722 52.5732C157.59 48.4313 160.719 45.0896 165.108 42.5479C169.591 40.0063 174.774 38.7355 180.658 38.7355C186.168 38.7355 190.837 39.7239 194.666 41.7007C198.589 43.6776 201.764 46.4075 204.192 49.8904C206.714 53.2792 208.535 57.327 209.656 62.0337C210.87 66.7404 211.477 71.7766 211.477 77.1423C211.477 82.9786 210.776 88.3913 209.375 93.3804C208.068 98.3695 206.107 102.7 203.492 106.371C200.97 110.042 197.795 112.96 193.966 115.125C190.137 117.196 185.701 118.232 180.658 118.232C174.961 118.232 170.058 117.149 165.949 114.984C161.84 112.725 158.711 109.619 156.563 105.665V136.023C156.563 137.341 155.909 138 154.602 138H149.278C148.718 138 148.204 137.812 147.738 137.435C147.364 137.059 147.177 136.588 147.177 136.023V41.9831Z" fill="black"/>
<path d="M293.77 114.419C293.77 115.737 293.116 116.396 291.808 116.396H286.205C284.897 116.396 284.244 115.737 284.244 114.419V70.9294C284.244 66.411 283.823 62.5985 282.983 59.4921C282.236 56.2915 281.115 53.7499 279.621 51.8672C278.127 49.8904 276.306 48.4784 274.158 47.6312C272.01 46.784 269.628 46.3604 267.013 46.3604C259.355 46.3604 253.471 48.196 249.362 51.8672C245.346 55.5385 243.339 60.6217 243.339 67.117V114.419C243.339 115.737 242.685 116.396 241.377 116.396H235.774C234.466 116.396 233.813 115.737 233.813 114.419V5.97682C233.813 4.65894 234.466 4 235.774 4H241.377C242.685 4 243.339 4.65894 243.339 5.97682V46.9252C245.954 43.9129 249.176 41.7478 253.005 40.4299C256.927 39.0179 261.783 38.3119 267.574 38.3119C276.632 38.3119 283.263 40.9947 287.466 46.3604C291.668 51.726 293.77 59.8686 293.77 70.7882V114.419Z" fill="black"/>
<path d="M361.914 76.5774H359.252C354.022 76.3892 349.353 76.6245 345.244 77.2835C341.228 77.8483 337.866 78.6484 335.157 79.6839C331.235 81.0959 328.293 83.2139 326.332 86.0379C324.371 88.7678 323.39 92.0625 323.39 95.922C323.39 98.2754 323.764 100.488 324.511 102.558C325.258 104.535 326.425 106.089 328.013 107.218C330.815 109.477 334.55 110.607 339.22 110.607C342.489 110.607 345.477 109.948 348.185 108.63C350.987 107.312 353.415 105.43 355.47 102.982C357.524 100.535 359.112 97.5223 360.233 93.9452C361.353 90.274 361.914 86.085 361.914 81.3783V76.5774ZM321.989 51.8672C321.522 52.1496 321.055 52.2438 320.588 52.1496C320.215 51.9614 320.028 51.6319 320.028 51.1612V45.7956C320.028 44.4777 320.682 43.4893 321.989 42.8304C325.258 41.0418 328.713 39.8181 332.356 39.1591C336.091 38.406 340.154 38.0295 344.543 38.0295C353.882 38.0295 360.7 40.2887 364.996 44.8072C369.292 49.2315 371.44 55.9621 371.44 64.999V100.44C371.44 103.264 371.486 105.806 371.58 108.065C371.673 110.23 371.813 112.348 372 114.419C372 115.737 371.346 116.396 370.039 116.396H364.996C363.688 116.396 363.034 115.737 363.034 114.419V103.547C361.073 108.348 357.758 112.066 353.088 114.702C348.512 117.338 343.516 118.655 338.099 118.655C328.667 118.655 321.756 115.878 317.366 110.325C315.872 108.442 314.751 106.277 314.004 103.829C313.257 101.288 312.884 98.7931 312.884 96.3456C312.884 90.6034 314.191 85.6614 316.806 81.5195C319.514 77.3776 323.624 74.2712 329.134 72.2002C335.858 69.7527 346.177 68.529 360.093 68.529H361.914V64.2929C361.914 58.3625 360.56 53.844 357.851 50.7376C355.236 47.6312 350.8 46.078 344.543 46.078C340.341 46.078 336.371 46.5487 332.636 47.49C328.9 48.3372 325.351 49.7963 321.989 51.8672Z" fill="black"/>
<path d="M74.2274 79.4015C70.305 69.6115 66.5226 59.9628 62.8804 50.4552C59.3315 40.8535 55.5959 31.1577 51.6735 21.3678C47.7511 31.1577 43.8754 40.8535 40.0464 50.4552C36.3107 59.9628 32.4817 69.6115 28.5593 79.4015H74.2274ZM98.6023 114.419C99.0693 115.737 98.649 116.396 97.3416 116.396H90.6174C90.0571 116.396 89.5434 116.302 89.0765 116.114C88.7029 115.926 88.3294 115.361 87.9558 114.419L77.5894 88.4384H24.9171C23.1426 92.8627 21.4149 97.1928 19.7339 101.429C18.0528 105.665 16.3718 109.995 14.6908 114.419C14.3172 115.361 13.897 115.926 13.43 116.114C13.0564 116.302 12.5895 116.396 12.0291 116.396H5.4451C4.13763 116.396 3.71737 115.737 4.18432 114.419L45.3696 13.3193C45.8366 12.1897 46.6771 11.6249 47.8912 11.6249H56.4364C57.6505 11.6249 58.491 12.1897 58.958 13.3193L98.6023 114.419Z" stroke="black" stroke-width="8" mask="url(#path-1-outside-1)"/>
<path d="M125.017 114.419C125.017 115.737 124.364 116.396 123.056 116.396H116.892C115.585 116.396 114.931 115.737 114.931 114.419V6.11802C114.931 4.80014 115.585 4.1412 116.892 4.1412H123.056C124.364 4.1412 125.017 4.80014 125.017 6.11802V114.419Z" stroke="black" stroke-width="8" mask="url(#path-1-outside-1)"/>
<path d="M201.25 77.1423C201.25 73.2828 200.877 69.5645 200.13 65.9874C199.383 62.3161 198.122 59.0685 196.347 56.2445C194.573 53.4204 192.285 51.1612 189.483 49.4668C186.681 47.6783 183.179 46.784 178.977 46.784C175.148 46.784 171.832 47.5841 169.031 49.1844C166.229 50.7847 163.894 52.9968 162.026 55.8209C160.252 58.5508 158.898 61.7513 157.964 65.4225C157.03 69.0938 156.563 73.0004 156.563 77.1423C156.563 88.0618 158.571 96.3456 162.587 101.994C166.696 107.548 172.159 110.325 178.977 110.325C182.526 110.325 185.654 109.571 188.362 108.065C191.164 106.465 193.499 104.206 195.367 101.288C197.328 98.3695 198.776 94.8865 199.709 90.8388C200.737 86.791 201.25 82.2255 201.25 77.1423ZM147.177 41.9831C147.177 40.6653 147.831 40.0063 149.138 40.0063H154.462C155.769 40.0063 156.423 40.6653 156.423 41.9831L155.722 52.5732C157.59 48.4313 160.719 45.0896 165.108 42.5479C169.591 40.0063 174.774 38.7355 180.658 38.7355C186.168 38.7355 190.837 39.7239 194.666 41.7007C198.589 43.6776 201.764 46.4075 204.192 49.8904C206.714 53.2792 208.535 57.327 209.656 62.0337C210.87 66.7404 211.477 71.7766 211.477 77.1423C211.477 82.9786 210.776 88.3913 209.375 93.3804C208.068 98.3695 206.107 102.7 203.492 106.371C200.97 110.042 197.795 112.96 193.966 115.125C190.137 117.196 185.701 118.232 180.658 118.232C174.961 118.232 170.058 117.149 165.949 114.984C161.84 112.725 158.711 109.619 156.563 105.665V136.023C156.563 137.341 155.909 138 154.602 138H149.278C148.718 138 148.204 137.812 147.738 137.435C147.364 137.059 147.177 136.588 147.177 136.023V41.9831Z" stroke="black" stroke-width="8" mask="url(#path-1-outside-1)"/>
<path d="M293.77 114.419C293.77 115.737 293.116 116.396 291.808 116.396H286.205C284.897 116.396 284.244 115.737 284.244 114.419V70.9294C284.244 66.411 283.823 62.5985 282.983 59.4921C282.236 56.2915 281.115 53.7499 279.621 51.8672C278.127 49.8904 276.306 48.4784 274.158 47.6312C272.01 46.784 269.628 46.3604 267.013 46.3604C259.355 46.3604 253.471 48.196 249.362 51.8672C245.346 55.5385 243.339 60.6217 243.339 67.117V114.419C243.339 115.737 242.685 116.396 241.377 116.396H235.774C234.466 116.396 233.813 115.737 233.813 114.419V5.97682C233.813 4.65894 234.466 4 235.774 4H241.377C242.685 4 243.339 4.65894 243.339 5.97682V46.9252C245.954 43.9129 249.176 41.7478 253.005 40.4299C256.927 39.0179 261.783 38.3119 267.574 38.3119C276.632 38.3119 283.263 40.9947 287.466 46.3604C291.668 51.726 293.77 59.8686 293.77 70.7882V114.419Z" stroke="black" stroke-width="8" mask="url(#path-1-outside-1)"/>
<path d="M361.914 76.5774H359.252C354.022 76.3892 349.353 76.6245 345.244 77.2835C341.228 77.8483 337.866 78.6484 335.157 79.6839C331.235 81.0959 328.293 83.2139 326.332 86.0379C324.371 88.7678 323.39 92.0625 323.39 95.922C323.39 98.2754 323.764 100.488 324.511 102.558C325.258 104.535 326.425 106.089 328.013 107.218C330.815 109.477 334.55 110.607 339.22 110.607C342.489 110.607 345.477 109.948 348.185 108.63C350.987 107.312 353.415 105.43 355.47 102.982C357.524 100.535 359.112 97.5223 360.233 93.9452C361.353 90.274 361.914 86.085 361.914 81.3783V76.5774ZM321.989 51.8672C321.522 52.1496 321.055 52.2438 320.588 52.1496C320.215 51.9614 320.028 51.6319 320.028 51.1612V45.7956C320.028 44.4777 320.682 43.4893 321.989 42.8304C325.258 41.0418 328.713 39.8181 332.356 39.1591C336.091 38.406 340.154 38.0295 344.543 38.0295C353.882 38.0295 360.7 40.2887 364.996 44.8072C369.292 49.2315 371.44 55.9621 371.44 64.999V100.44C371.44 103.264 371.486 105.806 371.58 108.065C371.673 110.23 371.813 112.348 372 114.419C372 115.737 371.346 116.396 370.039 116.396H364.996C363.688 116.396 363.034 115.737 363.034 114.419V103.547C361.073 108.348 357.758 112.066 353.088 114.702C348.512 117.338 343.516 118.655 338.099 118.655C328.667 118.655 321.756 115.878 317.366 110.325C315.872 108.442 314.751 106.277 314.004 103.829C313.257 101.288 312.884 98.7931 312.884 96.3456C312.884 90.6034 314.191 85.6614 316.806 81.5195C319.514 77.3776 323.624 74.2712 329.134 72.2002C335.858 69.7527 346.177 68.529 360.093 68.529H361.914V64.2929C361.914 58.3625 360.56 53.844 357.851 50.7376C355.236 47.6312 350.8 46.078 344.543 46.078C340.341 46.078 336.371 46.5487 332.636 47.49C328.9 48.3372 325.351 49.7963 321.989 51.8672Z" stroke="black" stroke-width="8" mask="url(#path-1-outside-1)"/>
</svg>
