<svg width="587" height="301" viewBox="0 0 587 301" fill="none" xmlns="http://www.w3.org/2000/svg">
<rect y="5.34299" width="510" height="295.583" fill="url(#paint0_linear)"/>
<mask id="mask0" mask-type="alpha" maskUnits="userSpaceOnUse" x="342" y="0" width="245" height="301">
<path d="M464.5 25.0834C424.994 25.0834 393.042 64.3388 393.042 112.875C393.042 178.719 464.5 275.917 464.5 275.917C464.5 275.917 535.959 178.719 535.959 112.875C535.959 64.3388 504.007 25.0834 464.5 25.0834ZM464.5 144.229C457.732 144.229 451.24 140.926 446.454 135.046C441.668 129.166 438.979 121.191 438.979 112.875C438.979 104.559 441.668 96.5843 446.454 90.7043C451.24 84.8242 457.732 81.5209 464.5 81.5209C471.269 81.5209 477.76 84.8242 482.546 90.7043C487.332 96.5843 490.021 104.559 490.021 112.875C490.021 121.191 487.332 129.166 482.546 135.046C477.76 140.926 471.269 144.229 464.5 144.229V144.229Z" fill="#FF0000"/>
</mask>
<g mask="url(#mask0)">
<path d="M381.102 34.5207C383.102 -0.999992 399.102 -31.4463 453.102 -51.7438L605.103 -77.1157C641.103 -26.3719 713.103 78.6678 713.103 92.876C713.103 107.084 694.436 161.38 685.103 186.752L477.103 328.835L463.103 295.851C441.769 258.639 399.902 184.722 403.102 186.752C407.102 189.289 379.102 70.0413 381.102 34.5207Z" fill="url(#paint1_linear)"/>
</g>
<defs>
<linearGradient id="paint0_linear" x1="255" y1="5.34299" x2="255" y2="300.926" gradientUnits="userSpaceOnUse">
<stop stop-color="#3E245F" stop-opacity="0"/>
<stop offset="0.484375" stop-color="#6E45A3" stop-opacity="0.79"/>
<stop offset="1" stop-color="#3E245F" stop-opacity="0"/>
</linearGradient>
<linearGradient id="paint1_linear" x1="547.051" y1="-77.1157" x2="547.051" y2="328.835" gradientUnits="userSpaceOnUse">
<stop offset="0.307292" stop-color="#FF0000"/>
<stop offset="1" stop-color="#221111" stop-opacity="0.88"/>
</linearGradient>
</defs>
</svg>
