<svg width="1152" height="632" viewBox="0 0 1152 632" fill="none" xmlns="http://www.w3.org/2000/svg">
<path d="M211.332 1.00046C209.459 1.03187 207.697 2.64338 207.299 5.38291C207.157 6.3654 207.096 15.7269 207.166 26.1849C207.237 36.643 207.2 45.1987 207.085 45.1983C206.97 45.1978 206.876 48.2497 206.876 51.9797V58.7611L202.682 59.0273C197.772 59.3383 196.621 60.0374 195.887 63.1566C195.54 64.6319 195.39 71.6051 195.39 86.3479V107.426L191.107 107.445C183.936 107.47 184.111 106.947 184.111 128.718V145.628L179.68 145.806L175.246 145.988L174.04 147.829L172.832 149.669V176.681V203.694H168.48C164.175 203.694 164.111 203.712 162.84 205.33L161.555 206.969V243.882V280.796L151.841 280.938C142.888 281.07 142.136 281.154 142.189 282.013C142.203 282.245 142.115 282.199 142.089 282.341L153.644 282.185L153.646 282.399L162.6 282.146L162.809 244.876C163.011 208.986 163.05 207.57 163.824 206.583C164.504 205.716 165.359 205.529 169.346 205.378L174.068 205.2L174.183 177.642C174.293 151.404 174.336 150.034 175.093 148.968C175.808 147.963 176.346 147.848 180.368 147.848C183.596 147.848 184.975 147.649 185.309 147.137C185.623 146.655 185.808 140.621 185.883 128.397L185.995 110.367L187.247 109.565C188.04 109.058 190.072 108.699 192.782 108.581L197.062 108.393V85.6791C197.062 62.0333 197.088 61.686 198.816 61.686C199.23 61.686 199.569 61.4451 199.569 61.1536C199.569 60.8326 201.311 60.6212 203.956 60.6212H208.342V56.2356C208.342 51.8583 208.344 51.8448 209.802 50.3631C210.607 49.5462 211.266 48.495 211.266 48.0258C211.266 47.5565 210.607 46.1458 209.802 44.8964L208.342 42.6272V23.9483C208.342 6.87565 208.405 5.18214 209.073 4.3084C209.84 3.30511 210.809 2.82315 211.704 2.84758L211.702 2.84109C212.597 2.86622 213.417 3.39829 213.884 4.435C214.261 5.27251 214.452 12.7597 214.606 32.9631L214.812 60.3518L219.384 60.5044C221.914 60.5886 224.201 60.9196 224.508 61.2445C226.19 63.0214 226.291 64.3767 226.402 86.8997L226.509 108.659L229.714 108.539C233.426 108.401 236.357 109.323 236.644 110.721C236.752 111.247 237.005 111.678 237.205 111.678C237.405 111.678 237.618 119.757 237.679 129.63L237.789 147.579L242.383 147.731C246.63 147.871 247.049 147.979 247.918 149.169L248.856 150.458V177.827V205.197L253.685 205.375C258.264 205.545 258.554 205.624 259.314 206.885C260.091 208.172 260.115 209.701 260.125 255.118C260.129 273.868 260.059 285.237 259.957 292.865H260.033V307.697C260.12 307.871 260.18 308.037 260.033 308.243V313.213C260.13 315.512 260.189 319.255 260.232 325.071L260.344 340.118H294.806H329.266L329.475 307.6L329.684 275.085L330.729 273.978C331.304 273.37 331.885 272.861 332.022 272.855C332.159 272.843 332.724 272.364 333.276 271.784C334.784 270.201 334.888 270.104 338.039 267.427C339.647 266.061 341.902 264.093 343.051 263.051C344.2 262.01 345.492 260.852 345.922 260.48C346.352 260.109 346.925 259.569 347.194 259.276C347.463 258.983 347.994 258.504 348.375 258.211C348.756 257.919 350.252 256.627 351.699 255.342C353.146 254.057 355.552 251.928 357.045 250.609C358.539 249.289 359.855 248.066 359.97 247.891C360.085 247.717 360.492 247.334 360.875 247.041C361.728 246.389 365.301 243.269 368.116 240.714C369.264 239.671 370.554 238.514 370.984 238.143C371.414 237.772 371.987 237.228 372.256 236.935C372.525 236.643 373.05 236.167 373.424 235.874C374.313 235.177 378.015 231.932 380.646 229.544C381.795 228.501 383.089 227.344 383.52 226.973C383.951 226.601 385.497 225.221 386.954 223.905C388.412 222.588 390.84 220.436 392.351 219.12C393.862 217.803 395.512 216.312 396.018 215.805C397.267 214.553 397.7 214.156 398.503 213.533C399.42 212.823 402.275 210.298 405.017 207.771C407.666 205.33 409.635 204.993 410.927 206.758C411.761 207.897 411.766 208.508 411.766 298.046C411.766 350.698 411.922 388.312 412.141 388.484C412.347 388.646 428.952 388.789 449.043 388.795C479.588 388.808 485.703 388.935 486.368 389.555C487.144 390.278 487.169 392.746 487.372 490.728L487.581 591.161L495.855 591.427C504.079 591.691 504.135 591.699 504.931 593.021C505.948 594.706 505.947 596.124 504.931 597.809L504.125 599.133L325.513 599.267C208.036 599.355 170.535 599.349 156.9 599.055L156.897 599.344L144.455 599.244C144.281 599.312 144.141 599.273 143.994 599.241L141.692 599.221C141.207 599.393 140.196 599.445 138.041 599.445C135.786 599.445 134.747 599.386 134.13 599.159L132.113 599.143C132.094 599.426 131.259 599.376 129.78 599.124L127.088 599.101L127.093 599.374L69.0301 599.361C34.83 599.354 10.5784 599.145 10.0212 598.857C8.24583 597.942 7.86712 594.004 9.39911 592.381C9.85735 591.896 12.3873 591.615 18.0267 591.427L26.0042 591.161L26.2133 476.733C26.4167 365.281 26.4427 362.276 27.2152 361.189C28.0047 360.079 28.1503 360.072 57.292 359.936L86.5734 359.8L86.7825 322.835C86.8971 302.504 87.1494 285.465 87.3408 284.97C88.3343 282.407 88.2851 282.412 110.751 282.412L110.753 282.409H131.825L131.805 282.48L141.623 282.347C141.539 282.177 141.444 282.175 141.383 281.88C141.205 281.011 140.814 280.815 139.247 280.815C138.106 280.815 137.327 281.057 137.327 281.412C137.327 281.844 137.167 281.84 136.746 281.393C136.318 280.941 129.824 280.819 112.11 280.929L88.0547 281.078L86.9941 282.428L85.9309 283.782L85.8366 320.724L85.7397 357.667L56.6292 357.933L27.5212 358.199L26.2413 360.024L24.9614 361.848V475.837V589.826H17.2797H9.59542L8.29771 591.368C7.20252 592.671 7 593.301 7 595.41C7 597.519 7.20253 598.149 8.29771 599.452V599.455L9.59542 601L256.943 600.987C490.669 600.974 504.339 600.924 505.181 600.055C507.606 597.554 507.606 593.273 505.181 590.771C504.41 589.977 503.257 589.852 496.665 589.839L489.042 589.83V490.936C489.042 430.597 488.892 391.531 488.652 390.73C488.437 390.008 487.836 388.915 487.319 388.302C486.38 387.188 486.358 387.188 449.907 387.188H413.436V298.377C413.436 200.373 413.595 206.245 410.899 204.469C408.553 202.925 407.115 203.472 402.794 207.553C401.707 208.581 396.48 213.236 393.991 215.393C392.472 216.709 391.008 218.025 390.738 218.318C390.468 218.61 388.462 220.391 386.281 222.275C384.1 224.159 381.54 226.434 380.59 227.33C379.64 228.225 378.512 229.259 378.084 229.628C377.656 229.997 375.143 232.202 372.501 234.53C369.859 236.858 367.345 239.07 366.915 239.445C366.484 239.82 365.886 240.427 365.586 240.792C365.286 241.157 364.914 241.454 364.758 241.454C364.602 241.454 363.79 242.14 362.953 242.977C362.116 243.813 359.269 246.363 356.627 248.641C353.985 250.92 350.79 253.766 349.527 254.968C348.263 256.171 346.102 258.11 344.724 259.276C343.345 260.442 341.999 261.634 341.736 261.928C341.472 262.222 338.685 264.727 335.543 267.492C332.4 270.258 329.468 273.166 329.026 273.956C328.257 275.334 328.223 276.668 328.223 307.09V338.787H294.796H261.369L261.318 324.029C261.289 315.912 261.261 307.713 261.257 305.811C261.253 303.91 261.279 281.258 261.313 255.475C261.354 225.268 261.226 208.05 260.956 207.063C260.274 204.573 259.112 203.986 254.287 203.694L249.901 203.427L249.81 176.065L249.72 148.705L248.652 147.345C247.66 146.082 247.268 145.977 243 145.81L238.413 145.628V127.88V110.13L237.269 108.779C236.19 107.506 235.864 107.429 231.629 107.429H227.137V84.8546V62.2801L226.127 60.7868C225.153 59.3437 224.969 59.289 220.49 59.115L215.858 58.9332V31.6906V4.44798L214.555 2.75019C213.62 1.5325 212.456 0.981809 211.332 1.00046ZM209.359 46.974C209.426 46.9677 209.507 46.9988 209.593 47.0616C209.823 47.2425 210.009 47.4944 210.009 47.6232C210.009 47.752 209.823 47.857 209.593 47.857C209.363 47.857 209.175 47.6051 209.175 47.2954C209.175 47.1408 209.222 47.0362 209.298 46.9935C209.316 46.9809 209.337 46.974 209.359 46.974ZM208.263 68.6914C205.289 68.7103 203.784 68.8695 203.485 69.1849C202.616 70.1044 202.632 107.709 203.503 108.332C203.83 108.563 207.592 108.686 211.862 108.601L219.626 108.445L219.516 88.6559L219.407 68.8667L211.735 68.7207C210.409 68.6956 209.254 68.6855 208.263 68.6914ZM204.578 70.1945H211.692H218.805L218.764 88.1365C218.736 99.8229 218.571 106.311 218.285 106.751H218.282C217.961 107.243 216.053 107.426 211.21 107.426H204.578V88.8118V70.1945ZM230.907 116.989L211.373 117.129L191.838 117.265L191.729 131.828C191.65 142.187 191.755 146.602 192.096 147.124C192.493 147.734 195.826 147.836 211.63 147.722L230.686 147.582L230.798 132.286L230.907 116.989ZM193.302 118.596H211.681H230.061V132.159V145.722H211.681H193.302V132.159V118.596ZM199.775 126.838L199.655 131.584C199.588 134.194 199.629 136.652 199.747 137.045C199.922 137.625 202.156 137.734 211.567 137.619L223.167 137.476V132.159V126.838H211.472H199.775ZM200.82 128.15L211.368 128.293L221.915 128.436L222.038 132.292L222.16 136.145H211.49H200.82V132.149V128.15ZM242.174 155.289L211.368 155.425L180.562 155.561L180.452 179.759C180.392 193.069 180.434 204.26 180.544 204.625C180.702 205.149 187.273 205.291 211.46 205.291H242.174V180.288V155.289ZM181.605 157.421H211.472H241.338V180.558V203.694H211.75C195.477 203.694 182.035 203.535 181.883 203.34C181.73 203.145 181.605 192.734 181.605 180.204V157.421ZM211.506 164.875C191.516 164.869 189.327 164.952 188.636 165.748C188.027 166.45 187.871 167.426 187.871 170.569C187.871 172.737 188.066 174.977 188.305 175.545C188.728 176.552 189.333 176.575 211.592 176.441L234.446 176.302L234.566 171.027C234.654 167.165 234.542 165.638 234.148 165.32C233.852 165.08 223.664 164.879 211.506 164.875ZM189.541 166.995H211.426C230.998 166.995 233.34 167.083 233.567 167.835C234.008 169.298 233.841 173.67 233.319 174.334C232.942 174.814 227.452 174.974 211.179 174.974H189.541V170.984V166.995ZM203.513 184.641C193.093 184.635 188.775 184.786 188.44 185.138C187.749 185.868 187.647 193.126 188.305 194.692C188.728 195.698 189.333 195.722 211.592 195.588L234.446 195.448V190.131V184.813L211.727 184.674C208.647 184.655 205.917 184.645 203.513 184.645V184.641ZM189.541 186.135L211.577 186.271L233.61 186.407L233.735 188.835C233.803 190.17 233.666 191.902 233.431 192.689L233.006 194.12H211.273H189.541V190.128V186.135ZM169.285 213.533V315.388V417.242L207.087 417.505L244.892 417.771L245.014 421.625L245.136 425.478L218.489 425.614L191.841 425.751V431.334V436.921L218.471 437.057L245.101 437.194V440.914V444.631H218.835C196.839 444.631 192.492 444.755 192.086 445.378C191.772 445.858 191.643 447.884 191.721 451.094L191.841 456.068L218.471 456.204L245.101 456.34V460.06C245.101 462.106 245.053 463.833 244.996 463.901C244.939 463.969 232.955 464.148 218.366 464.3L191.841 464.576V469.897V475.214L218.366 475.48L244.892 475.746V479.47V483.193L218.366 483.469C203.778 483.621 191.787 483.797 191.721 483.865C191.656 483.933 191.656 486.324 191.721 489.176L191.841 494.36L218.366 494.636C232.955 494.788 244.947 494.968 245.014 495.036C245.082 495.103 245.082 496.895 245.014 499.016L244.892 502.872L218.366 503.135L191.841 503.401L191.721 508.589L191.601 513.773H217.645C238.1 513.773 243.842 513.919 244.415 514.451C245.002 515.001 245.122 515.789 245.019 518.574L244.892 522.019L218.366 522.285L191.841 522.548L191.798 524.372H192.037V532.614C192.079 532.698 192.088 532.959 192.139 533.001C192.436 533.24 204.176 533.44 218.229 533.445C232.282 533.45 244.077 533.599 244.44 533.776C244.955 534.028 245.101 534.91 245.101 537.763V541.431H218.784H192.468V539.896C192.468 539.273 192.272 538.866 192.037 538.535V552.098C192.073 552.193 192.093 552.439 192.132 552.488C192.511 552.971 199.02 553.127 218.866 553.127H245.098V556.851V560.574H219.172C202.099 560.574 192.97 560.76 192.438 561.123C192.227 561.267 192.154 561.606 192.037 561.866V564.963H191.673C191.666 565.419 191.629 565.534 191.629 566.132C191.629 568.584 191.745 570.97 191.884 571.433C192.112 572.188 194.855 572.274 218.616 572.274H245.098V575.997V579.721H219.067C198.727 579.721 192.883 579.867 192.318 580.393C191.706 580.965 191.613 581.829 191.716 586.113L191.836 591.154H222.749H253.659L253.764 526.615C253.799 505.154 253.848 498.424 253.897 488.851H253.555V459.288C253.509 458.936 253.453 458.62 253.453 458.126C253.453 457.595 253.525 457.657 253.555 457.291V448.26H254.169C254 440.766 253.877 418.018 253.874 379.917L253.871 333.456H253.807V292.865H253.866L253.769 255.429L253.662 213.533H211.475H169.285ZM170.328 214.864H211.472H252.617V402.345V589.826H222.961H193.304V585.84V581.85H219.396C243.83 581.85 245.512 581.788 245.85 580.919C246.465 579.333 246.183 571.203 245.493 570.647C245.15 570.371 233.852 570.162 219.098 570.157L193.304 570.151V566.427V562.704H219.386C237.762 562.704 245.552 562.534 245.751 562.126C246.165 561.273 246.228 553.018 245.83 551.933C245.51 551.059 243.838 551.004 219.396 551.004H193.304V547.037V543.071L219.274 543.041C235.258 543.022 245.43 542.811 245.728 542.496C246.218 541.976 246.202 533.377 245.707 532.358C245.563 532.059 235.076 531.861 219.384 531.861H193.302V527.872V523.882H219.394C243.835 523.882 245.509 523.819 245.83 522.95C246.104 522.204 246.172 517.473 245.968 513.377C245.941 512.853 240.375 512.712 219.618 512.712H193.302V508.459V504.203H219.618C236.857 504.203 245.95 504.019 245.975 503.671C245.995 503.378 246.016 501.223 246.016 498.882C246.016 496.542 245.995 494.39 245.975 494.097C245.949 493.749 236.857 493.565 219.618 493.565H193.302V489.309V485.057H219.572C240.218 485.057 245.881 484.914 246.019 484.391C246.115 484.026 246.165 481.727 246.126 479.285C246.077 476.135 245.887 474.707 245.473 474.373C245.15 474.113 233.338 473.898 219.095 473.893L193.302 473.886V469.9V465.91H219.394C243.834 465.91 245.509 465.847 245.832 464.979C246.301 463.716 246.147 455.862 245.641 455.217C245.39 454.897 235.411 454.657 219.373 454.587L193.511 454.474L193.389 450.617L193.266 446.764H219.366C238.19 446.764 245.547 446.596 245.756 446.166C246.336 444.972 246.223 436.567 245.616 435.795C245.139 435.187 240.594 435.061 219.169 435.061H193.302V431.071V427.085L219.486 427.088C234.987 427.093 245.766 426.897 245.906 426.608C246.227 425.948 246.081 417.179 245.738 416.473C245.551 416.087 233.773 415.911 207.898 415.911H170.328V315.391V214.864ZM404.849 218.055C404.256 218.062 396.249 224.778 394.388 226.83C394.123 227.122 393.554 227.67 393.124 228.047C392.694 228.425 390.18 230.629 387.538 232.946C384.896 235.263 382.382 237.467 381.952 237.844C381.522 238.222 380.954 238.772 380.692 239.065C380.43 239.358 379.373 240.339 378.342 241.25C376.338 243.019 370.715 247.924 369.421 249.031C368.991 249.399 368.425 249.952 368.167 250.261C367.907 250.57 367.415 250.987 367.07 251.186C366.726 251.386 365.127 252.769 363.519 254.257C361.91 255.746 359.843 257.602 358.924 258.383C358.005 259.165 357.042 260.045 356.783 260.338C356.524 260.631 355.959 261.173 355.528 261.542C355.098 261.911 352.587 264.116 349.945 266.444C347.303 268.772 344.789 270.984 344.359 271.359C343.929 271.734 343.364 272.279 343.105 272.573C342.846 272.867 341.505 274.056 340.127 275.215C338.748 276.374 337.199 277.791 336.682 278.364L335.742 279.406V321.328C335.742 339.653 335.719 348.566 335.642 354.388H335.749V364.978C335.813 364.982 335.823 364.942 335.887 364.948L337.205 365.117L337.31 322.523L337.417 279.932L339.609 277.952C343.329 274.587 347.608 270.753 348.431 270.05C348.862 269.682 350.407 268.302 351.865 266.986C353.322 265.67 355.748 263.517 357.255 262.201C358.761 260.885 360.316 259.511 360.712 259.149C361.107 258.788 362.558 257.457 363.937 256.195C365.315 254.934 368.701 251.923 371.458 249.505C374.215 247.087 377.784 243.924 379.392 242.473C381 241.023 383.821 238.511 385.659 236.893C387.497 235.276 390.129 232.935 391.507 231.689C392.886 230.444 395.61 228.023 397.563 226.31C399.515 224.598 401.821 222.499 402.682 221.645L404.247 220.094V404.962H404.25V589.83H393.384H382.515L382.531 533.585C382.597 266.034 382.564 252.095 381.84 252.095C381.107 252.095 375.853 256.467 374.79 257.961C374.235 258.742 374.163 269.756 374.168 351.739L374.171 444.631H370.831H367.491V355.258C367.491 277.505 367.413 265.852 366.884 265.593C366.288 265.302 360.274 270.172 359.256 271.771C358.861 272.392 358.743 291.789 358.733 358.602L358.718 444.631H355.587H352.456L352.349 362.066C352.228 267.442 352.787 277.363 347.821 281.643C342.774 285.994 343.241 281.706 343.365 322.653C343.464 355.583 343.525 358.197 344.175 358.134C344.76 358.078 344.795 358.234 344.387 359.066C344.007 359.836 344.015 360.307 344.418 361.127C344.878 362.066 344.835 362.189 344.053 362.189C343.276 362.189 343.199 362.403 343.439 363.919C343.589 364.87 343.68 366.006 343.64 366.445C343.601 366.884 343.499 384.654 343.411 405.936L343.25 444.631H340.331H337.412V409.961V375.291L336.473 374.009C335.579 372.789 335.574 372.737 336.369 372.911C337.014 373.053 337.233 372.762 337.335 371.632C337.409 370.82 337.264 370.168 337.009 370.168C336.674 370.168 336.673 369.867 337.009 369.068C337.571 367.729 336.804 366.022 335.749 365.643V370.574C335.893 370.659 335.941 370.855 335.849 371.304C335.81 371.495 335.781 371.472 335.749 371.603V394.979H335.739V410.373C335.739 429.46 335.852 445.454 335.991 445.916C336.199 446.605 336.993 446.757 340.354 446.757C342.613 446.757 344.561 446.551 344.683 446.3C344.805 446.048 344.923 427.585 344.943 405.27C344.953 393.902 344.997 387.845 345.042 381.657H344.713V341.066H345.177C345.069 335.563 344.93 332.418 344.93 319.637V286.658L347.482 284.269C348.886 282.953 350.202 281.877 350.406 281.877C350.621 281.877 350.779 298.593 350.779 321.234H350.776C350.776 339.185 350.733 349.177 350.689 353.849V381.657H350.616L350.674 403.975C350.752 434.068 350.913 445.522 351.261 446.056C351.62 446.607 352.734 446.754 355.748 446.64L359.758 446.488L359.865 359.793L359.972 273.099L361.535 271.771C363.273 270.292 363.502 270.079 364.939 268.57C365.491 267.99 366.101 267.515 366.295 267.515C366.49 267.515 366.65 307.844 366.65 357.135V446.754H370.826H375.004V353.262V259.773L375.889 258.99C376.377 258.56 376.994 257.968 377.258 257.676C377.523 257.383 378.628 256.369 379.716 255.423L381.694 253.702L381.684 358.92L381.674 464.138L381.575 464.258V466.939C381.618 467.021 381.689 467.035 381.689 467.248C381.689 467.348 381.596 467.533 381.575 467.663V473.052C381.59 473.204 381.676 473.366 381.674 473.497C381.669 473.923 381.624 474.006 381.575 474.11V479.051C381.574 479.089 381.606 479.164 381.603 479.197C381.598 479.247 381.58 479.254 381.575 479.301V483.054C381.614 483.192 381.689 483.282 381.689 483.476C381.689 483.618 381.595 483.618 381.575 483.732V486.203L381.699 486.235L381.689 538.165C381.685 566.727 381.68 590.396 381.684 590.761C381.689 591.587 404.878 591.741 405.277 590.917C405.413 590.638 405.514 561.452 405.504 526.06L405.492 470.14H405.237V437.343C405.217 437.266 405.232 437.15 405.237 437.077V429.549H405.494L405.499 326.175C405.5 267.44 405.499 219.086 405.499 218.721C405.498 218.356 405.207 218.057 404.852 218.055H404.849ZM211.518 222.795C194.493 222.807 177.437 223.044 177.094 223.48C176.781 223.878 176.592 225.861 176.592 228.771C176.592 232.639 176.717 233.514 177.324 233.965C177.803 234.321 189.576 234.511 211.546 234.523C238.789 234.536 245.141 234.408 245.59 233.835C246.171 233.095 246.301 224.558 245.748 223.418C245.537 222.984 228.543 222.779 211.518 222.795ZM191.334 224.642C191.472 224.629 191.643 224.76 191.872 225.002V225.005L192.884 225.002V224.97H218.991H245.098V228.693V232.417H211.681H209.726V233.218L177.844 233.274L177.836 225.028H178.265V224.97H184.111C184.932 224.97 184.999 225.009 185.607 225.015L191.183 225.005C191.218 224.96 191.235 224.671 191.275 224.655C191.294 224.648 191.314 224.642 191.334 224.642ZM396.823 238.299C396.794 238.298 396.761 238.3 396.729 238.305C396.471 238.349 396.139 238.594 395.666 239.045C395.217 239.474 393.628 240.973 392.135 242.376L389.419 244.928L389.312 412.723C389.254 505.012 389.293 580.822 389.402 581.188H389.404C389.638 581.974 396.956 582.145 397.331 581.373C397.637 580.741 397.64 239.386 397.333 238.753C397.189 238.455 397.033 238.302 396.823 238.299ZM396.729 240.386V268.577C396.729 285.318 396.704 291.641 396.522 294.404V298.708C396.585 298.8 396.729 298.787 396.729 298.949C396.729 299.028 396.564 299.077 396.522 299.16V302.481C396.607 302.95 396.729 303.129 396.729 304.11C396.729 305.295 396.639 306.143 396.522 306.723V322.916C396.645 333.326 396.729 350.066 396.729 380.456V438.745H396.767V479.337H396.729V525.034V579.747H393.386H390.044V527.359V474.97H390.047V472.916C390.027 472.792 390.027 472.671 390.047 472.555V466.852C390.046 466.826 390.044 466.808 390.044 466.78C390.044 466.768 390.046 466.751 390.047 466.738V457.928H390.044V352.45V246.976L391.194 245.613C391.826 244.863 393.33 243.38 394.536 242.318L396.729 240.386ZM211.559 241.99C181.031 241.99 178.055 242.066 177.357 242.869C176.736 243.585 176.592 244.558 176.592 248.08C176.592 250.737 176.787 252.655 177.094 253.05C177.826 253.983 245.326 253.975 245.779 253.043C246.285 252 246.057 243.616 245.498 242.759C245.067 242.097 240.253 241.99 211.559 241.99ZM178.265 244.116H211.681H245.098V247.839V251.563H211.681H178.265V247.839V244.116ZM211.541 261.669C185.696 261.669 177.476 261.819 177.094 262.305C176.787 262.696 176.592 264.611 176.592 267.252C176.592 269.889 176.785 271.8 177.092 272.196H177.094C177.855 273.137 245.326 273.121 245.781 272.183C246.211 271.301 246.242 263.762 245.822 262.597C245.507 261.723 243.464 261.669 211.541 261.669ZM178.265 263.262H211.699H245.134L245.011 267.119L244.889 270.976L211.577 271.112L178.265 271.248V267.255V263.262ZM211.623 280.815C189.388 280.815 177.938 281.001 177.4 281.367C176.696 281.847 176.592 282.514 176.592 286.597C176.592 289.17 176.717 291.434 176.87 291.628C177.257 292.121 245.922 292.079 245.98 291.586C246.006 291.367 246.066 289.187 246.115 286.743C246.178 283.532 246.041 282.09 245.621 281.555C245.133 280.934 239.63 280.815 211.623 280.815ZM178.265 282.402L211.577 282.539L244.889 282.675L245.017 286.119C245.119 288.905 245.004 289.693 244.415 290.242C243.839 290.779 236.889 290.921 211.253 290.921C193.415 290.921 178.696 290.762 178.543 290.567C178.39 290.372 178.265 288.455 178.265 286.308V282.402ZM137.513 290.648L130.912 290.739C131.086 291.051 131.327 291.278 131.715 291.466C132.336 291.767 138.836 291.985 147.171 291.985H161.555V353.905V415.827L158.422 416.002C156.523 416.108 155.283 415.964 155.278 415.645C155.273 415.352 155.225 389.383 155.174 357.936L155.079 300.76L151.15 300.607C148.989 300.523 147.061 300.658 146.867 300.903C146.674 301.149 146.51 326.763 146.505 357.823C146.5 388.883 146.386 414.659 146.253 415.103C146.068 415.717 145.319 415.911 143.13 415.911H140.251V359.043C140.251 327.767 140.138 301.801 139.999 301.338C139.624 300.095 131.69 300.095 131.315 301.338C131.175 301.801 131.063 327.767 131.063 359.043V415.911H127.929H124.796L124.814 358.881C124.839 293.328 125.417 300.497 120.12 300.497C117.359 300.497 116.537 300.695 117.068 301.88V301.747H118.858C118.902 301.695 118.838 301.559 118.924 301.559C119.01 301.559 119.012 301.695 119.08 301.747H123.544V306.308L123.646 361.088L123.753 417.242H128.138H132.526L132.631 359.4L132.738 301.562H135.657H138.579L138.683 359.4L138.79 417.103L147.704 417.164V386.322H147.77V355.609V301.559H150.686C153.364 301.559 153.62 301.654 153.83 302.753C153.955 303.411 153.983 328.005 153.889 357.404C153.794 386.803 153.552 412.427 153.353 414.347L153.182 415.996V417.203L162.126 417.265L162.603 417.239L162.707 354.08C162.792 303.732 162.707 290.92 162.289 290.908C162.001 290.901 156.034 290.909 149.027 290.921C141.175 290.937 138.392 290.895 137.513 290.648ZM121.833 290.69C119.492 290.788 115.878 290.838 109.741 290.862L93.6764 290.927L93.5719 354.216L93.4648 417.508H97.6435H101.822V372.691V327.876L101.873 327.847V309.067C101.863 308.489 101.822 308.339 101.822 307.477C101.822 306.372 101.835 305.522 101.873 304.785V302.062H102.732C103.083 301.792 103.529 301.63 104.219 301.617V301.614C104.291 301.612 104.366 301.613 104.443 301.614C104.796 301.615 105.195 301.634 105.649 301.666L108.298 301.825L108.306 302.062H108.349V303.578L108.418 305.948C108.479 308.005 108.473 308.997 108.349 309.518V317.137C108.443 317.339 108.465 317.619 108.609 317.692H108.612C109.019 317.903 109.016 317.969 108.596 318.001C108.5 318.008 108.441 317.819 108.349 317.757V319.79C108.371 319.828 108.504 319.971 108.504 319.988C108.504 320.114 108.41 320.039 108.349 320.033V321.984L108.507 321.955V369.733V417.508H112.599C115.226 417.508 116.874 417.279 117.196 416.869C117.579 416.381 117.696 403.79 117.696 363.442C117.696 352.482 117.731 349.318 117.747 342.338H117.068V302.812C116.786 302.554 116.369 302.091 116.283 302.091C116.108 302.091 115.991 303.707 116.026 305.681C116.06 307.656 116.076 333.266 116.056 362.592L116.026 415.911H112.892H109.759L109.703 367.114C109.669 340.274 109.674 317.472 109.723 316.443C109.77 315.413 109.615 313.918 109.376 313.119C109.103 312.198 109.093 311.664 109.351 311.664C109.846 311.664 109.894 302.123 109.404 301.14C109.155 300.639 107.994 300.494 105.129 300.607L101.195 300.76L101.108 312.729C101.06 319.311 101.014 345.217 101.004 370.301L100.983 415.911H97.6435H94.301V353.947V291.985L110.904 291.924C120.036 291.892 128.26 291.856 129.179 291.852C130.098 291.848 130.511 291.739 130.096 291.606C129.587 291.442 129.48 291.171 129.742 290.755L121.836 290.862L121.833 290.69ZM224.791 300.601C220.658 300.597 216.121 300.606 211.368 300.627L176.801 300.763L176.679 305.542C176.587 309.15 176.699 310.45 177.138 310.859C177.894 311.563 245.56 311.372 245.904 310.664C246.092 310.277 246.142 302.79 245.97 300.893C245.955 300.727 237.192 300.616 224.791 300.604V300.601ZM178.265 301.552L211.577 301.688L244.889 301.825V305.811V309.801L211.577 309.937L178.265 310.074V305.811V301.552ZM211.544 319.579C194.52 319.575 177.463 319.807 177.094 320.277C176.787 320.668 176.592 322.582 176.592 325.224C176.592 327.865 176.787 329.777 177.094 330.168C177.476 330.654 185.696 330.804 211.541 330.804C243.464 330.804 245.506 330.748 245.822 329.872C246.241 328.707 246.212 321.172 245.784 320.29C245.556 319.822 228.567 319.582 211.544 319.579ZM178.265 321.234H211.021C229.037 321.234 244.074 321.378 244.438 321.556C244.952 321.807 245.098 322.693 245.098 325.545V329.21H211.681H178.265V325.224V321.234ZM211.526 338.738C194.501 338.751 177.443 338.979 177.094 339.423C176.287 340.451 176.434 348.318 177.283 349.512C177.942 350.441 179.554 350.483 211.508 350.483C239.445 350.483 245.133 350.364 245.613 349.753C246.22 348.98 246.336 340.576 245.756 339.381C245.541 338.938 228.55 338.727 211.526 338.738ZM178.265 340.381H211.021C229.037 340.381 244.074 340.527 244.438 340.705C244.952 340.956 245.098 341.839 245.098 344.692V348.36H211.681H178.265V344.37V340.381ZM260.344 348.626L260.237 404.147C260.19 428.648 260.138 442.436 260.031 450.341V468.079L260.135 468.085V529.401C260.135 563.123 260.262 590.875 260.418 591.073C260.574 591.27 267.67 591.374 276.187 591.297L291.673 591.157L291.882 520.074C292.084 451.248 292.115 448.959 292.881 447.88C293.658 446.788 294.006 446.763 311.47 446.627L329.266 446.488L329.368 415.642C329.405 404.044 329.501 399.866 329.605 394.976H329.273V381.718C329.243 381.737 329.153 381.868 329.136 381.868C329.103 381.868 329.256 381.653 329.273 381.589V378.443C328.661 378.02 328.181 378.904 328.271 380.719C328.325 381.788 328.336 396.599 328.297 413.629L328.223 444.592L310.919 444.745C294.097 444.89 293.581 444.924 292.435 446.007C291.787 446.62 291.023 447.697 290.74 448.4C290.338 449.395 290.222 465.197 290.217 519.753H290.22L290.215 589.826H275.8H261.382L261.397 527.677C261.406 493.494 261.291 465.127 261.145 464.641C260.997 464.155 260.986 463.103 261.119 462.304C261.253 461.504 261.365 436.016 261.369 405.666L261.374 350.486H294.796H328.22V360.283V370.084L329.271 371.723V354.385H329.383L329.266 348.626H294.806H260.344ZM211.89 357.897C195.001 357.879 178.009 358.067 177.4 358.482C176.696 358.962 176.592 359.631 176.592 363.695C176.592 366.612 176.781 368.597 177.094 368.996C177.476 369.483 185.696 369.633 211.541 369.633C243.452 369.633 245.507 369.576 245.853 368.701C246.281 367.617 246.214 359.469 245.769 358.553C245.567 358.138 228.78 357.915 211.89 357.897ZM274.846 357.936C269.165 357.943 269.326 358.238 269.326 366.088C269.326 371.288 269.455 372.659 270.017 373.45C270.617 374.295 271.404 374.424 275.991 374.424C279.542 374.424 281.436 374.214 281.773 373.785C282.112 373.353 282.275 370.889 282.275 366.179C282.275 361.469 282.112 359.004 281.773 358.573C281.437 358.144 279.557 357.936 276.062 357.936C275.63 357.936 275.225 357.936 274.846 357.936ZM294.577 357.936C289.89 357.936 289.365 358.033 288.973 358.965C288.735 359.531 288.54 362.776 288.54 366.179C288.54 369.581 288.735 372.829 288.973 373.395C289.365 374.327 289.89 374.424 294.577 374.424C297.422 374.424 300.047 374.277 300.41 374.099C300.97 373.827 301.071 372.617 301.071 366.179C301.071 359.741 300.97 358.531 300.41 358.258C300.047 358.08 297.422 357.936 294.577 357.936ZM313.076 357.949C310.877 357.95 308.847 358.051 308.416 358.261C307.856 358.534 307.755 359.744 307.755 366.153C307.755 370.314 307.887 373.884 308.046 374.087C308.205 374.289 310.882 374.388 313.997 374.307L319.659 374.161L319.776 366.49C319.864 360.71 319.761 358.713 319.358 358.388C319.049 358.138 316.56 357.985 314.025 357.956C313.708 357.952 313.39 357.949 313.076 357.949ZM178.265 360.066H211.681H245.098V363.789V367.513H211.681H178.265V363.789V360.066ZM270.996 360.066H275.754C280.347 360.066 280.521 360.11 280.725 361.264C281.053 363.12 281.095 369.884 280.789 371.438L280.514 372.83H276.034C273.57 372.83 271.427 372.671 271.274 372.476C271.121 372.282 270.996 369.409 270.996 366.094V360.066ZM289.794 360.066H295.015H300.237V365.419C300.237 368.361 300.041 371.235 299.803 371.804C299.417 372.722 298.888 372.83 294.86 372.83C292.379 372.83 290.225 372.671 290.072 372.476C289.918 372.282 289.794 369.409 289.794 366.094V360.066ZM308.592 360.066H313.813H319.035V366.127C319.035 371.162 318.921 372.241 318.372 372.509V372.512C317.589 372.893 309.866 372.865 309.112 372.48C308.737 372.287 308.592 370.5 308.592 366.14V360.066ZM59.9996 367.643C37.9793 367.53 33.3429 367.63 32.9517 368.23C32.6043 368.765 32.5065 398.021 32.5845 480.057L32.6891 591.164L52.2185 591.3L71.7453 591.44V548.342V519.931H71.7377V479.34H71.8422C71.771 474.818 71.7539 468.105 71.7606 453.623C71.7744 420.812 71.7848 420.417 72.6428 419.102C73.4916 417.802 73.6565 417.769 80.1511 417.593L86.7927 417.414L86.683 392.597L86.576 367.779L59.9996 367.643ZM33.7344 369.639H59.5841H85.4338L85.6862 370.837C85.8248 371.495 85.9403 381.906 85.9437 393.973L85.9488 415.911H79.7713C73.6444 415.911 73.5831 415.924 72.2195 417.375L70.8453 418.836L70.8734 501.278C70.8892 546.62 70.7865 585.093 70.6439 586.775L70.3864 589.833H52.0604H33.7344V479.736V369.639ZM328.557 372.223C327.865 372.667 328.118 375.254 329.273 377.411V372.535C329.01 372.361 328.721 372.118 328.557 372.223ZM202.009 377.583V377.586C182.1 377.587 177.204 377.744 176.954 378.245C176.404 379.35 176.519 387.416 177.094 388.149C177.476 388.636 185.696 388.786 211.541 388.786C243.46 388.786 245.506 388.735 245.832 387.857C246.169 386.954 246.178 378.286 245.843 377.859C245.751 377.742 230.292 377.621 211.49 377.596C208.003 377.59 204.853 377.583 202.009 377.583ZM58.0671 377.683V377.687C56.4661 377.699 55.9929 377.9 55.7598 378.43C55.331 379.406 55.2401 406.529 55.6629 407.4C55.8387 407.763 57.4225 407.918 59.9792 407.822L64.0177 407.669V392.775V377.885L60.0761 377.729C59.2591 377.697 58.6008 377.683 58.0671 377.683ZM73.0379 377.693C71.4561 377.706 70.909 377.875 70.9065 378.264C70.7605 400.841 70.7922 406.723 71.0646 407.289C71.3045 407.781 72.4522 407.929 75.2254 407.818L79.0574 407.666V392.772V377.881L74.9832 377.729C74.208 377.697 73.5652 377.687 73.0379 377.693ZM43.8866 377.79V377.794C42.2891 377.787 40.8582 377.906 40.5977 378.18C39.7945 379.029 39.7041 406.281 40.5008 407.296C40.818 407.7 42.4129 407.935 44.8427 407.935C47.9529 407.935 48.7299 407.777 48.9347 407.098C49.3442 405.738 49.1695 378.729 48.7486 378.398C48.3242 378.063 46.4347 377.853 44.5775 377.803C44.3454 377.797 44.1148 377.797 43.8866 377.79ZM44.654 378.647V378.651C44.8412 378.631 44.9705 378.961 45.0441 379.443H47.8256V387.633C47.9894 387.772 48.1763 387.849 48.2591 388.166C48.343 388.486 48.1408 388.727 47.8256 388.766V403.543H47.5197V406.338H44.5954H41.6711V403.543H41.3524V379.443H42.1402C42.1931 379.374 42.2326 379.212 42.2983 379.212C42.399 379.212 42.4363 379.379 42.5099 379.443H44.2257C44.3469 379.127 44.4648 378.721 44.5928 378.667C44.6136 378.661 44.6338 378.654 44.654 378.647ZM209.7 378.998V379.212H215.911H245.134L245.011 383.069L244.889 386.925L218.478 387.062L209.741 387.107V387.244L177.859 387.497L177.819 379.251L178.265 379.248V379.212H180.771H182.724L209.7 378.998ZM56.7082 379.167L59.737 379.323L62.7659 379.479V392.775V406.072L59.737 406.228L56.7082 406.387V392.775V379.167ZM71.7453 379.17L74.9832 379.326L78.2211 379.479L78.3333 392.473C78.4197 402.513 78.3249 405.562 77.9152 405.893V405.897C77.6238 406.132 76.1159 406.328 74.5651 406.332L71.7453 406.338V392.756V379.17ZM317.571 387.169L312.768 387.315L307.964 387.458L307.832 389.188C307.741 390.389 307.88 390.915 308.283 390.915C308.498 390.915 308.928 391.395 309.316 391.785V389.302H309.675L309.362 388.795H310.575C311.236 388.795 311.477 388.955 311.575 389.302H313.535C313.81 389.035 314.106 388.847 314.42 388.834C314.762 388.822 315.091 389.01 315.391 389.302H317.446V389.935C317.505 389.96 317.607 390.047 317.885 390.324C318.287 390.726 318.616 391.145 318.616 391.256C318.616 391.694 318.272 391.412 317.727 390.526C317.527 390.2 317.481 390.101 317.446 390.013V392.606C317.502 392.777 317.63 392.932 317.553 393.09C317.509 393.181 317.487 393.14 317.446 393.204V395.94C317.85 395.577 318.317 395.128 318.522 395.057C319.048 394.878 319.035 395.74 319.035 398.073V401.563H315.692C313.804 401.563 313.028 401.5 312.668 401.245H309.316V393.204C308.898 393.096 308.432 392.981 308.245 392.834C307.459 392.216 307.662 401.359 308.457 402.371C308.971 403.026 310.094 403.15 314.377 403.03L319.659 402.881L319.779 396.891C319.894 391.038 319.87 390.859 318.734 389.036L317.571 387.169ZM318.984 387.247C318.895 387.253 318.812 387.297 318.744 387.383C318.616 387.546 318.624 388.049 318.759 388.5C319.072 389.535 319.868 389.575 319.868 388.552C319.868 387.916 319.443 387.315 319.075 387.25C319.045 387.245 319.013 387.244 318.984 387.247ZM273.128 387.263V387.266C270.723 387.273 270.197 387.479 269.852 388.081C269.197 389.221 269.127 400.623 269.765 402.141C270.174 403.113 270.604 403.174 276.134 403.037L282.066 402.887V395.177V387.464L276.22 387.315C274.938 387.284 273.929 387.263 273.128 387.263ZM292.277 387.283V387.286C289.99 387.298 289.083 387.469 288.891 387.854C288.325 388.991 288.465 401.789 289.052 402.537C289.418 403.004 291.175 403.149 295.214 403.043L300.864 402.891V395.181V387.468L295.049 387.322C293.955 387.296 293.039 387.283 292.277 387.283ZM270.996 388.76L275.904 388.912L280.812 389.065L280.939 393.584C281.009 396.07 280.955 398.882 280.817 399.833L280.565 401.563H275.782H270.996V395.161V388.76ZM289.794 388.76L294.911 388.912L300.028 389.065V395.181V401.297L294.911 401.446L289.794 401.595V395.181V388.76ZM211.5 396.742C194.474 396.767 177.418 397.005 177.094 397.417C176.374 398.335 176.42 406.572 177.151 407.344C177.534 407.749 182.759 407.979 193.756 408.075C202.581 408.151 217.932 408.148 227.868 408.068C244.648 407.935 245.936 407.861 245.98 407.007C246.118 404.336 245.944 397.76 245.723 397.304C245.523 396.892 228.526 396.715 211.5 396.742ZM411.975 397.031L411.865 416.311C411.826 423.473 411.773 426.702 411.702 429.552H411.715V437.781C411.778 437.877 411.799 438.025 411.715 438.174V450.137L411.766 450.215L411.873 520.688L411.978 591.164H446.649H481.32V494.097V397.031H446.649H411.975ZM178.265 398.369L211.577 398.505L244.889 398.641V402.361V406.085L211.577 406.221L178.265 406.358V402.361V398.369ZM413.436 398.375H446.646H479.854V494.11V589.846H446.646H413.436L413.367 519.772C413.328 481.232 413.322 445.75 413.357 440.924C413.387 436.097 413.418 424.547 413.423 415.259L413.436 398.375ZM423.948 406.335C422.057 406.329 420.137 406.545 419.787 406.991C419.141 407.813 419.064 440.402 419.705 441.242C420.372 442.091 427.596 441.868 428.024 440.985C428.472 440.064 428.375 407.919 427.922 407.017C427.698 406.57 425.838 406.341 423.948 406.335ZM438.233 406.335C436.596 406.341 435.134 406.505 434.962 406.861C434.826 407.14 434.632 414.79 434.533 423.861C434.377 438.176 434.439 440.463 434.995 441.17C435.847 442.255 442.344 442.34 443.039 441.274C443.684 440.284 443.682 408.05 443.036 407.059C442.764 406.64 440.843 406.388 438.941 406.341C438.704 406.336 438.466 406.335 438.233 406.335ZM454.165 406.348C452.391 406.348 450.616 406.562 450.279 406.991C449.911 407.46 449.777 412.014 449.777 424.17C449.777 436.326 449.911 440.88 450.279 441.349C450.587 441.74 452.09 441.985 454.165 441.985C456.239 441.985 457.74 441.74 458.048 441.349C458.416 440.88 458.55 436.326 458.55 424.17C458.55 412.014 458.416 407.46 458.048 406.991C457.711 406.562 455.939 406.348 454.165 406.348ZM469.48 406.351C467.189 406.351 465.63 406.591 465.316 406.991C464.948 407.46 464.817 412.014 464.817 424.17C464.817 436.326 464.948 440.88 465.316 441.349C466.105 442.353 472.53 442.194 473.35 441.151C473.918 440.428 474.005 438.155 474.005 424.361C474.005 414.382 473.844 408.024 473.574 407.38C473.197 406.483 472.672 406.351 469.48 406.351ZM420.682 407.669H427.158V440.333H424.325C424.29 440.337 424.281 440.395 424.246 440.395C424.17 440.395 424.165 440.345 424.103 440.333H420.682V407.669ZM435.874 407.669H442.35V440.018H435.874V427.978C435.593 427.204 435.526 426.222 435.874 426.092V421.284C435.865 421.252 435.785 421.215 435.785 421.186C435.785 420.959 435.805 420.806 435.874 420.703V409.857L435.869 409.808L435.874 409.815V407.669ZM451.24 408.214H454.165H457.089L457.199 424.037L457.308 439.859H454.162H451.019L451.128 424.037L451.24 408.214ZM466.278 408.214H469.202H472.126L472.236 424.037L472.348 439.859H469.199H466.053L466.165 424.037L466.278 408.214ZM60.094 415.895C59.9827 415.895 59.8715 415.896 59.76 415.898C57.9757 415.93 56.2067 416.209 55.8822 416.707C55.1919 417.768 55.2257 444.984 55.9204 446.05C56.5342 446.991 62.9964 447.061 63.7245 446.134C64.4387 445.225 64.4387 417.47 63.7245 416.561C63.3675 416.106 61.7633 415.893 60.094 415.895ZM44.6617 415.921C41.794 415.921 41.0339 416.096 40.5824 416.853C39.8823 418.027 39.7463 444.11 40.432 445.741C40.809 446.638 41.3343 446.77 44.5265 446.77C46.8172 446.77 48.3736 446.53 48.6874 446.131C49.4016 445.221 49.4016 417.47 48.6874 416.561C48.3767 416.165 46.8467 415.921 44.6617 415.921ZM274.846 415.921C269.165 415.927 269.326 416.226 269.326 424.076C269.326 429.276 269.455 430.647 270.017 431.438C270.613 432.277 271.393 432.412 275.682 432.412C278.419 432.412 281.023 432.164 281.467 431.86C282.204 431.358 282.275 430.685 282.275 424.254C282.275 419.476 282.113 416.993 281.773 416.561C281.437 416.132 279.557 415.921 276.062 415.921C275.63 415.921 275.225 415.921 274.846 415.921ZM292.249 415.992C289.93 415.999 289.413 416.202 289.067 416.804C288.236 418.252 288.343 430.487 289.197 431.575C290.099 432.723 299.875 432.806 300.614 431.672C300.939 431.173 301.058 428.546 300.979 423.563L300.864 416.187L295.227 416.038C293.993 416.006 293.022 415.986 292.249 415.992ZM307.964 416.187L307.847 423.858C307.76 429.639 307.862 431.639 308.265 431.964C308.559 432.202 311.056 432.393 313.813 432.393C316.57 432.393 319.065 432.202 319.358 431.964C319.761 431.639 319.864 429.639 319.776 423.858L319.659 416.187H313.813H307.964ZM56.7082 417.47L59.737 417.629L62.7659 417.784V431.081V444.378L59.737 444.534L56.7082 444.689V431.081V417.47ZM280.539 417.482L280.809 420.294C280.955 421.839 281.02 424.658 280.947 426.559L280.812 430.016L275.891 430.166L270.968 430.318L271.088 424.05L271.205 417.784L275.874 417.635L280.539 417.482ZM41.6711 417.518H44.5954H47.5197V431.081V444.644H44.5954H41.6711V431.081V417.518ZM311.322 417.528V417.531C312.154 417.519 313.236 417.582 314.647 417.635L318.825 417.791L318.943 424.04L319.06 430.289H313.826H308.592V424.183C308.592 418.772 308.37 417.658 310.981 417.541C311.089 417.536 311.203 417.534 311.322 417.528ZM296.56 417.59C300.369 417.552 300.298 418.301 300.148 424.839L300.028 430.023L294.898 430.172L289.766 430.321L289.883 424.056L290.003 417.791L294.679 417.642C295.392 417.616 296.016 417.596 296.56 417.59ZM137.895 425.338C133.93 425.477 126.066 425.485 110.177 425.485C80.2233 425.485 78.4275 425.541 78.4226 426.416C78.4176 426.928 78.4143 440.751 78.4124 457.132C78.4114 468.056 78.3739 474.508 78.2874 479.34H78.4633V519.931H78.4302V551.534V591.427H102.284H125.056L125.059 590.839L156.938 591.099L156.935 591.417L170.379 591.294L185.572 591.154L185.681 568.547L185.699 564.963H185.561V535.432C185.438 535.473 185.365 535.371 185.365 534.955C185.365 534.736 185.448 534.516 185.561 534.322V524.372H185.786V479.307C185.786 439.146 185.667 426.608 185.284 426.121C184.92 425.658 181.745 425.478 173.693 425.465L166.116 425.452V425.54L155.926 425.468C155.859 425.947 155.55 425.88 155.089 425.462L153.208 425.449L153.241 425.501H149.646C148.905 425.501 148.474 425.449 147.969 425.41L144.57 425.387C144.554 425.47 144.445 425.55 144.443 425.631C144.421 426.282 143.721 426.038 143.428 425.377L137.895 425.338ZM184.083 427.134L184.203 482.56C184.268 513.046 184.269 549.657 184.205 563.918L184.088 589.846H131.675H79.2639L79.3684 508.605L79.473 427.361L131.779 427.247L184.083 427.134ZM165.061 439.823C162.003 439.836 159.17 440.024 158.603 440.411C157.849 440.924 157.795 441.614 157.795 450.692C157.795 456.044 157.925 460.589 158.083 460.791C158.241 460.994 161.859 461.091 166.124 461.012L173.877 460.869L173.992 451.098C174.071 444.342 173.958 441.1 173.627 440.593C173.332 440.14 169.899 439.873 166.379 439.83C165.939 439.824 165.498 439.823 165.061 439.823ZM97.8576 439.862C94.1021 439.862 90.733 440.006 90.3697 440.184C89.7997 440.462 89.7093 441.876 89.7093 450.468C89.7093 455.946 89.8343 460.586 89.9872 460.781C90.513 461.45 104.958 461.188 105.499 460.499C105.85 460.051 105.998 457.116 105.998 450.698C105.998 443.077 105.889 441.392 105.343 440.696C104.8 440.005 103.508 439.862 97.8576 439.862ZM117.698 439.911C115.12 439.917 113.571 440.073 113.14 440.365C112.299 440.936 112.265 441.365 112.265 450.413C112.265 457.052 112.413 460.05 112.765 460.499C113.426 461.341 127.959 461.405 128.365 460.567C128.517 460.254 128.704 455.97 128.781 451.046C128.962 439.448 129.506 440.191 120.615 439.95C119.53 439.918 118.557 439.908 117.698 439.914V439.911ZM144.144 439.93C143.716 439.93 143.283 439.934 142.852 439.943C139.398 439.994 136.025 440.283 135.596 440.761C135.01 441.415 134.901 442.882 134.867 450.617C134.839 456.612 134.984 459.951 135.292 460.424C135.926 461.396 150.271 461.467 151.028 460.502C151.38 460.054 151.53 457.072 151.53 450.487C151.53 441.288 151.512 441.097 150.59 440.531C149.933 440.128 147.145 439.939 144.144 439.934V439.93ZM114.289 441.472H127.674V458.515H127.279V460.31H113.331V456.145C113.212 456.225 113.114 456.021 113.132 455.512C113.142 455.202 113.172 455.018 113.216 454.961C113.221 454.954 113.228 454.951 113.234 454.944C113.261 454.932 113.297 455.032 113.331 455.103V442.55H113.519L113.517 441.992H114.289V441.472ZM90.543 441.992H97.6435H104.746V450.445C104.746 457.662 104.65 458.947 104.086 459.223C103.301 459.605 91.8193 459.582 91.0657 459.19C90.6787 458.991 90.543 456.729 90.543 450.455V441.992ZM147.862 441.992H150.299L150.182 450.637L150.069 459.281L148.698 459.311V459.992H135.996V442.235H137.154C137.567 442.087 138.128 441.995 138.954 441.995C139.945 441.995 140.561 442.08 140.988 442.235H145.791C146.371 442.085 147.071 441.992 147.862 441.992ZM159.049 441.992H165.95H172.855L172.74 450.637L172.625 459.278L166.126 459.424C162.552 459.505 159.496 459.405 159.337 459.203C159.178 459.001 159.049 455.047 159.049 450.416V441.992ZM274.808 444.667C269.244 444.664 269.326 445.043 269.326 452.695C269.326 456.208 269.519 459.547 269.757 460.112C270.151 461.05 270.68 461.141 275.731 461.141C279.483 461.141 281.434 460.934 281.773 460.502C282.112 460.071 282.275 457.627 282.275 452.984C282.275 447.053 282.174 446.002 281.544 445.394C281.037 444.903 279.339 444.682 275.998 444.67C275.576 444.668 275.179 444.667 274.808 444.667ZM270.999 446.78H275.746H280.493L280.779 452.25C280.935 455.258 280.94 458.13 280.789 458.632H280.792C280.555 459.417 279.887 459.544 276.037 459.544C273.572 459.544 271.43 459.385 271.277 459.19C271.124 458.996 270.999 456.124 270.999 452.808V446.78ZM423.879 449.971C421.642 449.971 420.099 450.213 419.787 450.611C419.419 451.079 419.285 455.528 419.285 467.319C419.285 476.159 419.4 483.769 419.54 484.232C419.745 484.915 420.515 485.073 423.632 485.073C426.061 485.073 427.656 484.84 427.973 484.437C428.341 483.968 428.476 479.473 428.476 467.524C428.476 455.574 428.342 451.079 427.973 450.611C427.661 450.213 426.116 449.971 423.879 449.971ZM438.85 449.971C435.657 449.971 435.132 450.103 434.755 451C434.486 451.642 434.322 457.86 434.322 467.524C434.322 477.187 434.485 483.406 434.755 484.047C435.132 484.944 435.657 485.073 438.85 485.073C441.14 485.073 442.697 484.836 443.011 484.437C443.379 483.968 443.513 479.473 443.513 467.524C443.513 455.574 443.379 451.079 443.011 450.611C442.697 450.211 441.14 449.971 438.85 449.971ZM469.411 449.971C467.174 449.971 465.629 450.213 465.316 450.611C464.948 451.08 464.817 455.636 464.817 467.806C464.817 476.913 464.941 484.524 465.095 484.719C465.601 485.364 472.969 485.116 473.503 484.437C473.871 483.968 474.005 479.473 474.005 467.524C474.005 455.574 473.871 451.079 473.503 450.611C473.191 450.213 471.648 449.971 469.411 449.971ZM449.986 450.237L449.876 466.985C449.816 476.197 449.857 484.045 449.973 484.424C450.128 484.935 451.218 485.073 454.262 484.959L458.341 484.81V467.524V450.237H454.165H449.986ZM420.955 451.568H423.879H426.803V467.524V483.479H423.879H420.955V467.524V451.568ZM435.994 451.568H438.919H441.84V467.524V483.479H438.919H435.994V467.524V451.568ZM451.031 451.568H454.17H457.308L457.199 467.39L457.089 483.213L454.356 483.369C452.853 483.453 451.489 483.35 451.327 483.145C451.165 482.938 451.034 475.75 451.034 467.17L451.031 451.568ZM466.068 451.568H469.202H472.335V467.524V483.479H469.48C467.91 483.479 466.502 483.32 466.349 483.125C466.196 482.93 466.068 475.75 466.068 467.17V451.568ZM310.733 454.308C303.786 454.334 299.345 454.39 299.087 454.47L298.149 454.759V522.739C298.149 560.128 298.274 590.878 298.427 591.073L298.429 591.076C298.582 591.271 315.875 591.43 336.858 591.43H375.009V542.863V499.003H374.854V458.411L374.798 454.474L337.414 454.328C327.133 454.287 317.68 454.283 310.733 454.308ZM44.5903 454.655C42.8038 454.658 41.0178 454.878 40.6079 455.311C40.1057 455.842 40.0011 458.348 40.0011 469.874C40.0011 479.994 40.1368 483.972 40.5008 484.437C40.818 484.841 42.4129 485.076 44.8427 485.076C47.9588 485.076 48.7315 484.915 48.9372 484.232C49.0769 483.769 49.1896 477.218 49.1896 469.673C49.1896 458.203 49.0874 455.845 48.5701 455.298C48.1615 454.867 46.3767 454.653 44.5903 454.655ZM60.5019 454.694C60.2682 454.694 60.0301 454.697 59.7931 454.701C57.8976 454.732 55.9994 454.923 55.7496 455.24C55.3564 455.737 55.2838 483.764 55.6731 484.566C55.8349 484.9 57.5254 485.055 59.9792 484.962L64.0177 484.813L64.1299 470.221C64.2004 460.996 64.0884 455.434 63.8239 455.097C63.6125 454.827 62.1375 454.699 60.5019 454.694ZM41.6711 456.356H44.5954H47.5197V469.919V483.482H44.5954H41.6711V469.919V456.356ZM56.7082 456.356H59.6249C62.302 456.356 62.5593 456.456 62.771 457.554C62.8983 458.212 62.9478 464.256 62.8832 470.984L62.7659 483.216L59.737 483.372L56.7082 483.528V469.939V456.356ZM299.401 456.356H336.751H374.104L374.033 522.973L373.962 589.589L336.682 589.726L299.401 589.862V523.106V456.356ZM142.541 469.066C139.026 469.072 135.683 469.301 135.323 469.76C134.792 470.436 134.577 487.37 135.078 489.033C135.303 489.779 136.314 489.871 143.329 489.744L151.321 489.598L151.436 480.093C151.514 473.534 151.402 470.361 151.071 469.854C150.749 469.361 147.005 469.092 143.244 469.069C143.009 469.067 142.775 469.065 142.541 469.066ZM336.578 469.085C332.828 469.085 329.078 469.308 328.725 469.757C328.196 470.43 327.979 487.365 328.478 489.02C328.698 489.744 329.814 489.861 336.578 489.861C343.348 489.861 344.459 489.746 344.678 489.02C345.177 487.365 344.959 470.43 344.43 469.757C344.078 469.308 340.328 469.085 336.578 469.085ZM93.5158 469.111C92.9478 469.11 92.537 469.125 92.422 469.143C92.1923 469.187 91.5355 469.265 90.9611 469.309L89.9158 469.39L89.8037 479.629L89.6889 489.868H97.6078C104.784 489.868 105.545 489.78 105.748 488.936C106.196 487.079 105.908 470.766 105.412 469.903C105.093 469.349 104.362 469.09 103.27 469.147C101.063 469.261 98.8391 469.262 95.5554 469.15C94.8087 469.125 94.0837 469.111 93.5158 469.111ZM125.087 469.111C124.917 469.111 124.738 469.112 124.549 469.114C123.54 469.127 122.246 469.158 120.574 469.212C116.566 469.338 113.059 469.623 112.777 469.845C112.405 470.138 112.265 472.814 112.265 479.7C112.265 484.9 112.39 489.316 112.543 489.51C113.069 490.181 127.931 489.914 128.472 489.225C129.217 488.276 129.168 471.261 128.416 469.952C128.057 469.327 127.632 469.111 125.087 469.111ZM164.816 469.137C161.718 469.138 158.888 469.24 158.455 469.452C157.886 469.73 157.795 471.118 157.795 479.467C157.795 484.798 157.925 489.326 158.083 489.527C158.241 489.73 161.859 489.829 166.124 489.751L173.877 489.605L173.992 479.804C174.079 472.319 173.979 469.904 173.574 469.575C173.266 469.327 169.733 469.172 166.154 469.143C165.707 469.14 165.259 469.137 164.816 469.137ZM312.701 469.14C309.602 469.139 306.769 469.234 306.328 469.452C305.759 469.73 305.667 471.121 305.667 479.47C305.667 484.802 305.792 489.322 305.945 489.517C306.414 490.114 321.461 489.932 321.755 489.325C321.9 489.025 322.02 484.562 322.02 479.408C322.02 472.208 321.892 469.934 321.467 469.591C321.152 469.338 317.62 469.18 314.04 469.147C313.593 469.143 313.144 469.14 312.701 469.14ZM358.218 469.14C355.12 469.141 352.29 469.24 351.857 469.452C351.288 469.73 351.197 471.121 351.197 479.47C351.197 484.802 351.327 489.326 351.485 489.527C351.643 489.73 355.262 489.829 359.526 489.751L367.279 489.605L367.394 479.804C367.481 472.319 367.382 469.904 366.976 469.575C366.669 469.327 363.136 469.176 359.557 469.147C359.11 469.143 358.661 469.14 358.218 469.14ZM136.493 470.695L143.28 470.844L150.067 470.991L150.187 478.7C150.253 482.942 150.203 486.953 150.075 487.611C149.846 488.789 149.743 488.806 143.168 488.806H136.493V479.752V470.695ZM343.26 470.698V479.752V488.809H336.585C330.01 488.809 329.908 488.79 329.679 487.611C329.552 486.953 329.498 482.945 329.564 478.704L329.684 470.991L336.473 470.844L343.26 470.698ZM91.7744 470.721C91.975 470.711 92.2284 470.854 92.4883 471.094H94.1277C94.1493 470.888 94.3379 470.721 94.7217 470.721C95.1052 470.721 95.2919 470.888 95.3132 471.094H97.1412V471.656C97.8973 471.081 98.6603 470.74 99.5633 470.76C100.51 470.785 101.08 471.183 101.733 471.974H103.372L102.595 470.721H103.671C104.588 470.721 104.746 470.955 104.746 472.315C104.746 473.193 104.699 473.902 104.642 473.883C104.631 473.879 104.47 473.623 104.428 473.568V476.759C104.551 477.125 104.735 477.569 104.734 477.766C104.728 478.364 104.752 478.68 104.428 478.369V481.177C104.438 481.215 104.641 481.488 104.637 481.505C104.622 481.562 104.478 481.377 104.428 481.379V484.738C104.668 484.864 104.743 485.389 104.667 486.543L104.537 488.537L101.509 488.696C99.8429 488.782 98.4775 488.664 98.4746 488.429C98.4744 488.411 98.2985 488.153 98.2859 488.118H96.8633C97.1422 488.63 97.1209 488.803 96.537 488.803C96.3809 488.803 96.0248 488.381 95.7415 488.118H93.6917C93.7085 488.162 93.8666 488.384 93.8676 488.407C93.877 488.626 93.2475 488.803 92.4679 488.803C91.2678 488.803 90.8867 488.086 90.7215 486.631H90.6654V486.19C90.6426 485.823 90.543 485.721 90.543 485.235V483.349L90.6654 483.521V479.785C90.6658 479.765 90.62 479.695 90.6221 479.678C90.6285 479.623 90.6555 479.63 90.6654 479.587V475.415C90.553 474.741 90.5222 474.215 90.6654 473.932V471.094H91.5373C91.6057 470.947 91.6325 470.728 91.7744 470.721ZM116.686 470.721H121.994H127.302V479.762V488.803H120.663C114.995 488.803 113.988 488.68 113.772 487.962C113.632 487.5 113.517 484.319 113.517 480.892V474.659L115.103 472.688L116.686 470.721ZM159.049 470.721H165.95H172.855L172.74 479.629L172.625 488.537L166.126 488.679C162.552 488.76 159.496 488.66 159.337 488.462C159.178 488.26 159.049 484.186 159.049 479.408V470.721ZM306.919 470.721H313.823H320.725L320.61 479.629L320.495 488.54L313.997 488.689C310.422 488.77 307.366 488.667 307.207 488.462C307.048 488.26 306.919 484.186 306.919 479.408V470.721ZM352.451 470.721H359.299C362.507 470.721 364.195 470.768 365.166 470.919H366.599V476.655C366.608 477.274 366.652 477.372 366.652 478.028C366.652 479.416 366.614 479.677 366.599 480.447V486.647C366.602 486.685 366.652 486.737 366.652 486.774C366.652 486.847 366.605 486.838 366.599 486.907V488.864H352.375V470.919H352.451V470.721ZM114.233 470.747C114.392 470.735 114.53 470.772 114.616 470.88V470.883C114.74 471.042 114.45 471.436 113.971 471.763C113.366 472.173 113.101 472.184 113.101 471.789C113.101 471.305 113.759 470.79 114.233 470.747ZM274.589 473.915C269.161 473.92 269.326 474.188 269.326 481.7C269.326 485.062 269.524 488.284 269.765 488.858C270.174 489.83 270.604 489.892 276.134 489.754L282.066 489.605L282.184 482.43C282.286 476.148 282.212 475.17 281.582 474.584C281.097 474.133 279.201 473.915 275.751 473.915C275.338 473.915 274.95 473.915 274.589 473.915ZM270.996 475.513H275.756C279.711 475.513 280.558 475.655 280.769 476.353C281.095 477.438 281.088 486.047 280.758 487.611C280.516 488.764 280.329 488.809 275.751 488.809H270.996V482.161V475.513ZM436.68 493.64C434.901 493.643 434.775 493.88 434.589 494.763C434.449 495.431 434.333 502.962 434.329 511.497C434.324 524.903 434.412 527.13 434.98 527.852C435.807 528.905 441.727 529.036 442.812 528.024C443.463 527.418 443.517 525.883 443.416 510.605L443.304 493.851L439.074 493.698C438.05 493.66 437.273 493.643 436.68 493.643V493.64ZM42.8923 493.656V493.659C41.2631 493.678 40.5406 493.852 40.353 494.227C39.7784 495.38 39.9167 522.515 40.5008 523.259C41.2361 524.195 48.108 524.119 48.7282 523.168C49.0632 522.652 49.1712 518.246 49.0928 508.144L48.9806 493.847L44.8376 493.695C44.0794 493.67 43.4353 493.65 42.8923 493.656ZM425.156 493.659C424.711 493.662 424.205 493.673 423.637 493.698L419.494 493.851L419.384 510.605C419.283 525.883 419.335 527.418 419.986 528.024C420.855 528.834 426.522 528.918 427.667 528.138C428.439 527.611 428.473 526.862 428.468 511.251C428.465 502.266 428.309 494.608 428.121 494.231C427.918 493.823 427.087 493.652 425.156 493.662V493.659ZM470.686 493.659C470.24 493.662 469.735 493.673 469.166 493.698L465.026 493.851L464.914 510.605C464.812 525.883 464.864 527.418 465.515 528.024C466.6 529.036 472.523 528.906 473.35 527.852C473.918 527.129 474.005 524.855 474 510.965C473.997 502.137 473.839 494.608 473.651 494.231C473.448 493.823 472.617 493.652 470.686 493.662V493.659ZM58.5337 493.669V493.672C57.0674 493.691 55.9392 493.817 55.7853 494.013C55.1986 494.76 55.3096 522.217 55.9025 523.142C56.5827 524.187 63.0878 524.209 63.7653 523.168C64.1003 522.652 64.2083 518.246 64.1299 508.144L64.0177 493.847L60.0889 493.695C59.5484 493.676 59.0224 493.669 58.5337 493.669ZM449.986 493.847L449.876 510.832C449.791 524.065 449.882 527.909 450.295 528.242C450.585 528.477 452.327 528.667 454.165 528.667C456.003 528.667 457.744 528.477 458.035 528.242C458.448 527.909 458.534 524.065 458.448 510.832L458.341 493.847H454.165H449.986ZM41.6711 494.646H44.5954H47.5197V508.475V522.301H44.5954H41.6711V508.475V494.646ZM420.955 494.646H423.879H426.803V510.868V527.089H423.879H420.955V510.868V494.646ZM435.994 494.646H438.919H441.84V510.868V527.089H438.919H435.994V510.868V494.646ZM60.5427 494.717C61.775 494.712 62.4206 494.891 62.6155 495.282C63.0097 496.074 63.1058 520.18 62.72 521.46C62.5226 522.115 61.8281 522.301 59.5815 522.301H56.6955L56.8051 508.608L56.9173 494.912L59.5943 494.75C59.9428 494.731 60.2583 494.717 60.5427 494.717ZM468.223 494.717H468.225C468.577 494.711 468.984 494.723 469.449 494.75L472.126 494.912L472.236 511.001L472.345 527.089H469.485C467.912 527.089 466.497 526.93 466.344 526.735C465.939 526.219 466.017 496.103 466.425 495.282C466.605 494.921 467.168 494.739 468.223 494.717ZM451.24 494.912H454.165H457.089L457.199 511.001L457.306 527.089H454.162H451.019L451.128 511.001L451.24 494.912ZM89.7068 498.37V508.43C89.7068 515.981 89.8377 518.558 90.2294 518.759C91.2526 519.285 104.383 519.111 105.19 518.561C105.94 518.051 105.998 517.364 105.998 509.03C105.998 504.091 105.885 499.673 105.746 499.21C105.527 498.484 104.411 498.37 97.6001 498.37H89.7068ZM139.614 498.451V498.454C136.506 498.466 135.366 498.632 135.173 499.022C134.987 499.395 134.832 503.814 134.828 508.845C134.822 517.002 134.901 518.052 135.552 518.535C136.658 519.355 149.941 519.277 150.834 518.444C151.471 517.85 151.538 516.737 151.436 508.206L151.321 498.632L143.415 498.49C141.904 498.465 140.65 498.451 139.614 498.451ZM355.883 498.451V498.454C352.857 498.466 351.735 498.632 351.536 499.022C351.344 499.395 351.197 500.893 351.207 502.356C351.217 503.819 351.23 507.88 351.235 511.381C351.241 515.081 351.433 518.032 351.691 518.428C352.209 519.206 366.038 519.422 366.973 518.665C367.381 518.337 367.479 515.918 367.391 508.433L367.277 498.632L359.58 498.49C358.111 498.465 356.892 498.451 355.883 498.451ZM122.843 498.46C122.038 498.462 121.14 498.474 120.146 498.493L112.474 498.636L112.359 508.569C112.255 517.697 112.306 518.521 112.987 518.746C113.394 518.881 116.862 519.02 120.694 519.051C126.515 519.102 127.768 518.977 128.317 518.279C129.227 517.121 129.297 499.909 128.396 498.957C128.072 498.616 126.331 498.457 122.843 498.464V498.46ZM315.126 498.473C314.621 498.476 314.103 498.487 313.573 498.493L305.876 498.639L305.762 508.209C305.658 516.859 305.717 517.848 306.386 518.477C306.946 519.005 308.883 519.131 314.3 519.009C318.245 518.92 321.597 518.692 321.747 518.5C322.168 517.962 322.071 499.367 321.645 498.824C321.465 498.594 318.66 498.452 315.126 498.473ZM158.004 498.636L157.889 508.209C157.787 516.741 157.854 517.853 158.493 518.448C159.247 519.149 171.272 519.418 173.155 518.776L174.104 518.451L173.992 508.543L173.877 498.636H165.94H158.004ZM328.432 498.639L328.317 508.209C328.215 516.741 328.28 517.853 328.919 518.448C329.425 518.919 331.672 519.113 336.578 519.113C341.484 519.113 343.73 518.919 344.237 518.448C344.873 517.853 344.94 516.741 344.838 508.209L344.724 498.639H336.578H328.432ZM356.752 499.431V499.434C357.257 499.434 357.578 499.531 357.917 499.623H360.717C360.749 499.532 360.833 499.479 361 499.47C361.083 499.466 361.184 499.469 361.298 499.473C361.372 499.476 361.484 499.592 361.568 499.623H363.712L363.572 499.434H364.643C364.97 499.434 365.185 499.533 365.416 499.623H366.599V517.568H352.375V499.623H355.987C356.249 499.582 356.509 499.431 356.752 499.431ZM120.661 499.434H120.663H127.302V508.475V517.519H120.689C117.051 517.519 113.948 517.36 113.795 517.165C113.447 516.722 113.424 501.422 113.769 500.275C113.986 499.557 114.992 499.434 120.661 499.434ZM136.493 499.434H143.168C149.743 499.434 149.846 499.453 150.075 500.632C150.202 501.29 150.253 505.298 150.187 509.54L150.067 517.253L143.28 517.399L136.493 517.545V508.491V499.434ZM336.621 499.434H343.26V508.478V517.519H336.647C333.009 517.519 329.908 517.36 329.755 517.165C329.407 516.722 329.384 501.422 329.73 500.275C329.946 499.557 330.953 499.434 336.621 499.434ZM96.0551 499.515C96.8267 499.518 97.6469 499.529 98.4797 499.554L104.537 499.707L104.652 508.615L104.767 517.526H97.9341C94.1761 517.526 90.9739 517.367 90.8209 517.172C90.668 516.977 90.543 513.03 90.543 508.404C90.543 500.123 90.5583 499.988 91.4838 499.697C91.7423 499.616 92.6581 499.56 93.9262 499.535C94.5603 499.522 95.2835 499.515 96.0551 499.515ZM159.258 499.704H165.94H172.625L172.74 508.611L172.855 517.522H165.94H159.029L159.143 508.611L159.258 499.704ZM307.128 499.704H313.813H320.495L320.61 508.615L320.725 517.522H313.813H306.899L307.013 508.615L307.128 499.704ZM273.686 503.245V503.249C271.436 503.268 270.199 503.431 269.905 503.742C269.015 504.683 269.08 517.134 269.982 518.282C270.835 519.369 280.445 519.506 281.582 518.448C282.214 517.862 282.286 516.884 282.184 510.601L282.066 503.427L276.276 503.278C275.298 503.253 274.436 503.239 273.686 503.245ZM270.996 504.226H275.766H280.537L280.735 505.687C281.031 507.858 281.06 514.381 280.781 516.058L280.537 517.522H275.766H270.996V510.874V504.226ZM143.176 527.096C138.014 527.096 135.674 527.287 135.323 527.735C134.973 528.181 134.821 531.088 134.821 537.399C134.821 545.052 134.925 546.573 135.512 547.398C136.128 548.266 136.951 548.372 143.104 548.372C148.938 548.372 150.12 548.233 150.765 547.489C151.449 546.701 151.53 545.649 151.53 537.49C151.53 531.107 151.379 528.182 151.028 527.735C150.676 527.287 148.337 527.096 143.176 527.096ZM336.578 527.096C331.417 527.096 329.077 527.287 328.725 527.735C328.374 528.182 328.223 531.144 328.223 537.649C328.223 545.859 328.308 547.006 328.955 547.632C329.492 548.151 331.504 548.34 336.545 548.352C342.354 548.365 343.521 548.234 344.168 547.489C344.851 546.701 344.933 545.649 344.933 537.49C344.933 531.107 344.781 528.182 344.43 527.735C344.079 527.287 341.739 527.096 336.578 527.096ZM124.332 527.167C123.272 527.165 121.923 527.188 120.199 527.219L112.474 527.365L112.359 537.136C112.256 545.97 112.317 546.978 112.987 547.625C113.534 548.154 115.475 548.343 120.421 548.355C129.576 548.381 128.972 549.125 128.972 537.808C128.972 531.506 128.82 528.63 128.449 527.985C128.099 527.373 127.513 527.176 124.332 527.17V527.167ZM355.883 527.183V527.187C352.857 527.199 351.742 527.365 351.549 527.755C351.363 528.127 351.208 532.669 351.204 537.847C351.199 546.257 351.276 547.319 351.929 547.804C353.031 548.622 365.901 548.54 366.792 547.709C367.434 547.114 367.496 545.986 367.394 537.205L367.279 527.368L359.582 527.222C358.113 527.197 356.891 527.183 355.883 527.183ZM100.517 527.187C99.6791 527.19 98.7176 527.197 97.6154 527.222L89.9158 527.372L89.8037 537.208C89.7017 545.989 89.7662 547.117 90.4053 547.713C90.9099 548.182 93.1258 548.381 97.9035 548.381C103.513 548.381 104.8 548.235 105.343 547.544C105.889 546.848 105.998 545.176 105.993 537.571C105.99 532.546 105.834 528.13 105.649 527.758C105.44 527.336 104.147 527.175 100.517 527.19V527.187ZM316.847 527.2C315.879 527.193 314.784 527.2 313.573 527.222L305.876 527.372L305.762 537.208C305.66 545.989 305.724 547.117 306.363 547.713V547.716C307.368 548.649 320.256 548.651 321.255 547.716C321.872 547.139 321.977 545.81 322.046 537.61C322.094 531.748 321.962 527.963 321.696 527.625C321.495 527.368 319.75 527.218 316.847 527.2ZM158.004 527.372L157.891 537.208C157.789 545.989 157.854 547.117 158.493 547.713C158.997 548.182 161.203 548.381 165.94 548.381C170.678 548.381 172.886 548.182 173.39 547.713C174.032 547.117 174.094 545.989 173.992 537.208L173.877 527.372H165.94H158.004ZM361.515 528.553C364.602 528.541 365.907 528.701 366.193 529.092C366.524 529.544 366.64 532.289 366.56 537.867L366.443 545.986L359.447 546.132L352.451 546.278V537.516V528.751L359.083 528.592C359.994 528.573 360.802 528.553 361.515 528.553ZM318.973 528.56C319.728 528.558 320.209 528.571 320.294 528.608C320.54 528.715 320.704 532.282 320.704 537.519V546.249H313.8H306.899L307.013 537.607L307.128 528.962L313.507 528.696C315.261 528.624 316.902 528.579 318.132 528.563V528.566C318.44 528.562 318.722 528.56 318.973 528.56ZM127.302 528.67V537.461V546.249H120.401H113.496L113.611 537.607L113.726 528.966L120.515 528.816L127.302 528.67ZM136.491 528.67L143.28 528.816L150.067 528.962L150.182 537.607L150.296 546.249H143.395H136.491V537.461V528.67ZM172.834 528.67V537.461V546.249H165.93H159.029L159.143 537.607L159.258 528.966L166.045 528.816L172.834 528.67ZM343.26 528.67V528.998H343.528V546.047H343.26V546.249H336.986H330.709L330.813 546.047H329.48V539.081H329.449L329.48 537.763V528.998H329.684V528.966L336.473 528.819L343.26 528.67ZM90.7521 528.962H97.6435H104.537L104.652 537.607L104.767 546.249H97.6435H90.5226L90.6374 537.607L90.7521 528.962ZM44.6464 531.871C42.7596 531.858 40.8571 532.073 40.5008 532.527C40.1367 532.99 40.0011 536.944 40.0011 546.979C40.0011 559.086 40.0861 560.913 40.692 561.766C41.2433 562.541 42.0099 562.74 44.4781 562.74C49.5447 562.74 49.1813 563.918 49.1667 547.459C49.1578 538.113 48.9997 533.041 48.7027 532.585C48.4042 532.126 46.5331 531.884 44.6464 531.871ZM275.731 531.887C270.68 531.887 270.151 531.975 269.757 532.913C269.519 533.479 269.326 536.818 269.326 540.331C269.326 546.328 269.383 546.77 270.254 547.547V547.544C271.351 548.523 280.12 548.742 281.467 547.823C282.204 547.321 282.275 546.648 282.275 540.217C282.275 535.439 282.113 532.956 281.773 532.523C281.434 532.091 279.483 531.887 275.731 531.887ZM58.3909 531.965C56.8688 531.984 56.2048 532.171 55.9306 532.592C55.2329 533.665 55.1937 560.875 55.8898 561.964C56.5888 563.024 63.0771 563.061 63.7628 562.009C64.0977 561.493 64.2058 557.014 64.1273 546.716L64.0152 532.157L60.2164 532.004C59.5009 531.973 58.8982 531.959 58.3909 531.965ZM41.5997 533.251H48.0755V533.845C48.2131 533.869 48.3534 533.892 48.3534 534.007C48.3534 534.159 48.1619 534.306 48.0755 534.461V544.931C48.1134 544.992 48.2312 544.986 48.2489 545.054C48.3047 545.267 48.2405 545.434 48.0755 545.547V561.477H41.5997V533.251ZM280.516 533.449L280.746 537.055C280.933 540.012 280.894 543.446 280.646 545.846C280.624 546.065 278.436 546.245 275.787 546.245H270.971L271.088 539.996L271.205 533.747L275.861 533.598L280.516 533.449ZM56.9173 533.747H59.8416H62.7659L62.8781 546.839C62.964 556.935 62.8682 560.035 62.4599 560.399C62.1688 560.655 60.7511 560.801 59.3113 560.714L56.6955 560.555L56.8051 547.151L56.9173 533.747ZM423.948 536.675C421.657 536.675 420.101 536.915 419.787 537.315C419.418 537.784 419.285 542.338 419.285 554.494C419.285 566.65 419.418 571.204 419.787 571.673C420.093 572.063 421.583 572.31 423.616 572.31C428.8 572.31 428.476 573.496 428.476 554.64C428.476 544.691 428.312 538.348 428.042 537.704C427.665 536.808 427.14 536.675 423.948 536.675ZM438.85 536.675C435.657 536.675 435.132 536.807 434.755 537.704C434.485 538.347 434.322 544.664 434.322 554.549C434.322 568.52 434.405 570.48 435.015 571.339C435.574 572.123 436.342 572.31 439.013 572.31C441.322 572.31 442.5 572.081 442.916 571.55C443.72 570.527 443.808 538.331 443.011 537.315C442.697 536.915 441.14 536.675 438.85 536.675ZM454.568 536.675C452.659 536.676 450.803 536.819 450.44 536.997C449.857 537.282 449.777 539.296 449.777 554.176C449.777 566.577 449.91 571.204 450.279 571.673C450.587 572.065 452.09 572.31 454.165 572.31C456.239 572.31 457.74 572.065 458.048 571.673C458.416 571.205 458.55 566.693 458.55 554.695C458.55 545.709 458.435 537.979 458.295 537.516C458.092 536.843 457.348 536.676 454.57 536.675H454.568ZM420.955 538.802H423.879H426.803V554.494V570.183H423.879H420.955V554.494V538.802ZM435.994 538.802H438.919H441.84V554.494V570.183H438.919H435.994V554.494V538.802ZM451.031 538.802H454.165H457.298V554.494V570.183H454.165H451.031V554.494V538.802ZM313.209 555.763C309.791 555.763 306.541 555.986 306.167 556.461C305.815 556.909 305.667 559.888 305.667 566.46C305.667 573.031 305.815 576.011 306.167 576.458H306.17C306.942 577.441 320.855 577.35 321.502 576.358C322.194 575.295 322.218 557.663 321.528 556.604C321.193 556.09 317.551 555.8 313.895 555.767C313.666 555.765 313.437 555.763 313.209 555.763ZM359.274 555.776C355.618 555.801 351.975 556.068 351.653 556.562C350.98 557.597 350.97 575.314 351.643 576.348C352.298 577.353 366.205 577.455 366.986 576.462C367.338 576.014 367.486 573.035 367.486 566.463C367.486 559.892 367.338 556.912 366.986 556.465C366.601 555.975 362.93 555.753 359.274 555.776ZM168.207 555.793C167.355 555.79 166.462 555.798 165.573 555.819C162.02 555.893 158.561 556.131 158.297 556.468C157.945 556.916 157.795 559.895 157.795 566.466C157.795 573.038 157.945 576.017 158.297 576.465C159.001 577.362 172.882 577.362 173.586 576.465C173.939 576.015 174.086 572.968 174.086 566.151C174.086 557.819 173.995 556.431 173.426 556.153C172.938 555.915 170.763 555.805 168.207 555.796V555.793ZM336.935 555.812C333.313 555.793 329.623 555.974 329.031 556.377C328.279 556.89 328.223 557.578 328.223 566.375C328.223 573.015 328.373 576.013 328.725 576.462C329.43 577.359 343.725 577.359 344.43 576.462C344.782 576.014 344.933 573.035 344.933 566.463C344.933 559.892 344.782 556.912 344.43 556.465C344.11 556.056 340.557 555.833 336.935 555.812ZM98.082 555.832C94.2032 555.832 90.733 555.978 90.3697 556.156C89.7997 556.434 89.7093 557.845 89.7093 566.437C89.7093 571.915 89.8343 576.559 89.9872 576.754C90.1404 576.948 93.6106 577.108 97.6996 577.108C104.622 577.108 105.165 577.037 105.567 576.078C105.814 575.491 105.998 571.367 105.998 566.47C105.998 561.572 105.814 557.448 105.567 556.861C105.166 555.906 104.627 555.832 98.082 555.832ZM120.429 555.832C115.415 555.832 113.116 556.024 112.765 556.471C112.06 557.369 112.06 575.57 112.765 576.468C113.115 576.914 115.4 577.108 120.357 577.108C126.368 577.108 127.562 576.974 128.21 576.228C128.891 575.443 128.972 574.398 128.972 566.564C128.972 559.136 128.866 557.628 128.281 556.805C127.663 555.935 126.836 555.832 120.429 555.832ZM143.14 555.832C136.199 555.832 135.657 555.903 135.254 556.861C135.007 557.448 134.821 561.572 134.821 566.47C134.821 571.367 135.007 575.491 135.254 576.078C135.656 577.035 136.196 577.108 142.931 577.108C149.155 577.108 150.255 576.983 150.748 576.228C151.534 575.024 151.841 557.749 151.097 556.607C150.69 555.983 149.152 555.832 143.14 555.832ZM343.26 557.935V566.723V575.514H336.565C331.472 575.514 329.819 575.348 329.661 574.825C329.545 574.447 329.506 570.556 329.569 566.181L329.684 558.227L336.473 558.081L343.26 557.935ZM352.451 557.935L359.447 558.081L366.446 558.227L366.56 566.431C366.648 572.637 366.546 574.74 366.142 575.066C365.849 575.302 362.647 575.501 359.029 575.507L352.451 575.51V566.723V557.935ZM90.543 557.961H97.6562H104.767L104.652 566.603L104.537 575.247L98.0616 575.345C94.5006 575.401 91.3528 575.32 91.0657 575.166C90.6787 574.963 90.543 572.695 90.543 566.424V557.961ZM113.517 557.961H120.411H127.302V566.736V575.51H120.689C117.051 575.51 113.948 575.351 113.795 575.157C113.642 574.962 113.517 571.014 113.517 566.382V557.961ZM136.493 557.961H143.385H150.276V564.382V570.807L150.217 570.719V575.137H148.42L148.677 575.51H142.584H136.493V566.736V557.961ZM159.049 557.961H165.95H172.855L172.74 566.603L172.625 575.247L166.126 575.39C162.552 575.471 159.496 575.371 159.337 575.17C158.882 574.59 159.001 568.596 159.467 568.596C159.697 568.596 159.885 567.895 159.885 567.034C159.885 566.174 159.697 565.323 159.467 565.142C159.237 564.961 159.049 563.27 159.049 561.386V557.961ZM306.919 557.961H313.823H320.725L320.61 566.603L320.495 575.247L313.997 575.394C310.422 575.474 307.369 575.375 307.21 575.17C307.051 574.967 306.919 571.014 306.919 566.382V557.961ZM274.744 560.62C269.247 560.639 269.326 561.024 269.326 568.719C269.326 573.968 269.454 575.341 270.017 576.134C270.617 576.978 271.404 577.108 275.991 577.108C279.542 577.108 281.436 576.897 281.773 576.468C282.113 576.036 282.275 573.552 282.275 568.774C282.275 562.343 282.204 561.67 281.467 561.168C281.023 560.866 278.525 560.62 275.919 560.62C275.502 560.62 275.111 560.619 274.744 560.62ZM270.996 562.714L275.904 562.863L280.812 563.012L280.881 568.333C280.918 571.258 280.858 574.07 280.748 574.582C280.573 575.399 279.965 575.51 275.772 575.51H270.996V569.112V562.714Z" stroke="#FFFDFD" stroke-width="0.4"/>
<path d="M938 415L2237.04 1090H-361.038L938 415Z" fill="#462E6D"/>
<path d="M576 415L1875.04 1090H-723.038L576 415Z" fill="url(#paint0_linear)"/>
<path d="M214 415L1513.04 1090H-1085.04L214 415Z" fill="#462E6D"/>
<defs>
<linearGradient id="paint0_linear" x1="576" y1="415" x2="576" y2="1315" gradientUnits="userSpaceOnUse">
<stop stop-color="#462E6D"/>
<stop offset="1" stop-color="#462E6D" stop-opacity="0"/>
</linearGradient>
</defs>
</svg>
