<svg width="1152" height="597" viewBox="0 0 1152 597" fill="none" xmlns="http://www.w3.org/2000/svg">
<rect x="628" y="560" width="27" height="37" fill="url(#paint0_linear)"/>
<rect x="284" y="457" width="27" height="158" fill="url(#paint1_linear)"/>
<rect x="855" y="356" width="27" height="238" fill="url(#paint2_linear)"/>
<rect x="705" y="532" width="27" height="62" fill="url(#paint3_linear)"/>
<rect x="778" y="488" width="27" height="109" fill="url(#paint4_linear)"/>
<rect x="549" y="391" width="27" height="203" fill="url(#paint5_linear)"/>
<rect x="465" y="455" width="27" height="133" fill="url(#paint6_linear)"/>
<rect x="381" y="519" width="27" height="78" fill="url(#paint7_linear)"/>
<rect x="986" y="274" width="27" height="320" fill="url(#paint8_linear)"/>
<rect x="919" y="377" width="27" height="238" fill="url(#paint9_linear)"/>
<rect x="1049" y="183" width="27" height="438" fill="url(#paint10_linear)"/>
<path d="M59.0895 563.798C96.0888 525.566 168.136 450.715 168.136 450.715L189.556 492.717L212.923 481.409L224.607 500.795L271.341 508.872L312.234 546.028L355.073 507.257L374.546 518.565L505.013 347.325L542.011 403.867L565.378 384.481L604.323 452.331L668.583 389.327L686.108 387.712L715.317 416.79L750.368 310.17L800.997 403.867L857.467 206.78L874.993 224.55L958.725 74.3114L987.934 124.391L1019.09 105.005L1046.35 143.777L1098.93 54.9258" stroke="white" stroke-width="0.865"/>
<path d="M90.2458 581.568L148.664 504.026L216.818 562.182L298.603 439.407L335.601 558.952L405.703 371.557L489.435 363.48L528.38 321.478L549.8 276.245L586.798 337.633L649.11 357.018L684.161 390.943L717.265 424.868L785.419 200.318L861.362 281.091" stroke="white" stroke-opacity="0.375291" stroke-width="0.565"/>
<defs>
<linearGradient id="paint0_linear" x1="641.5" y1="560" x2="641.5" y2="597" gradientUnits="userSpaceOnUse">
<stop stop-color="#3E245F"/>
<stop offset="0.869792" stop-color="#B791E8" stop-opacity="0"/>
</linearGradient>
<linearGradient id="paint1_linear" x1="297.5" y1="457" x2="297.5" y2="615" gradientUnits="userSpaceOnUse">
<stop stop-color="#3E245F"/>
<stop offset="1" stop-color="#B791E8" stop-opacity="0"/>
</linearGradient>
<linearGradient id="paint2_linear" x1="868.5" y1="356" x2="868.5" y2="594" gradientUnits="userSpaceOnUse">
<stop stop-color="#3E245F"/>
<stop offset="0.869792" stop-color="#B791E8" stop-opacity="0"/>
<stop offset="1" stop-color="#B791E8" stop-opacity="0"/>
</linearGradient>
<linearGradient id="paint3_linear" x1="718.5" y1="532" x2="718.5" y2="594" gradientUnits="userSpaceOnUse">
<stop stop-color="#3E245F"/>
<stop offset="0.869792" stop-color="#B791E8" stop-opacity="0"/>
</linearGradient>
<linearGradient id="paint4_linear" x1="791.5" y1="488" x2="791.5" y2="597" gradientUnits="userSpaceOnUse">
<stop stop-color="#3E245F"/>
<stop offset="1" stop-color="#B791E8" stop-opacity="0"/>
</linearGradient>
<linearGradient id="paint5_linear" x1="562.5" y1="391" x2="562.5" y2="594" gradientUnits="userSpaceOnUse">
<stop stop-color="#3E245F"/>
<stop offset="1" stop-color="#B791E8" stop-opacity="0"/>
</linearGradient>
<linearGradient id="paint6_linear" x1="478.5" y1="455" x2="478.5" y2="588" gradientUnits="userSpaceOnUse">
<stop stop-color="#3E245F"/>
<stop offset="1" stop-color="#B791E8" stop-opacity="0"/>
</linearGradient>
<linearGradient id="paint7_linear" x1="394.5" y1="519" x2="394.5" y2="597" gradientUnits="userSpaceOnUse">
<stop stop-color="#3E245F"/>
<stop offset="1" stop-color="#B791E8" stop-opacity="0"/>
</linearGradient>
<linearGradient id="paint8_linear" x1="999.5" y1="274" x2="999.5" y2="594" gradientUnits="userSpaceOnUse">
<stop stop-color="#3E245F"/>
<stop offset="1" stop-color="#B791E8" stop-opacity="0"/>
</linearGradient>
<linearGradient id="paint9_linear" x1="932.5" y1="377" x2="932.5" y2="615" gradientUnits="userSpaceOnUse">
<stop stop-color="#3E245F"/>
<stop offset="0.869792" stop-color="#B791E8" stop-opacity="0"/>
</linearGradient>
<linearGradient id="paint10_linear" x1="1062.5" y1="183" x2="1062.5" y2="621" gradientUnits="userSpaceOnUse">
<stop stop-color="#3E245F"/>
<stop offset="1" stop-color="#B791E8" stop-opacity="0"/>
</linearGradient>
</defs>
</svg>
